<?xml version="1.0" encoding="UTF-8"?>
<svg width="100pt" height="100pt" version="1.1" viewBox="0 0 100 100" xmlns="http://www.w3.org/2000/svg">
 <path d="m63.34 67.027c-3.4805 3.4805 1.9141 8.875 5.3945 5.3945 6.6602-6.6641 13.32-13.32 19.984-19.984 1.4648-1.4648 1.4648-3.9297 0-5.3945-6.6719-6.6602-13.34-13.324-20.008-19.988-3.4766-3.4883-8.8672 1.9102-5.3867 5.3906 5.7656 5.7656 11.531 11.531 17.301 17.297-5.7578 5.7578-11.52 11.527-17.285 17.285zm-1.5742-10.145c-3.9492 0-7.1484-3.2031-7.1484-7.1523 0-3.9453 3.1992-7.1367 7.1484-7.1367s7.1406 3.1914 7.1406 7.1367c-0.003906 3.9492-3.1953 7.1523-7.1406 7.1523zm-22.164 0c-3.9492 0-7.1484-3.2031-7.1484-7.1523 0-3.9453 3.1992-7.1367 7.1484-7.1367 3.9492 0 7.1445 3.1914 7.1445 7.1367-0.003906 3.9492-3.1953 7.1523-7.1445 7.1523zm-22.16 0c-3.9492 0-7.1484-3.2031-7.1484-7.1523 0-3.9453 3.1953-7.1367 7.1484-7.1367 3.9453 0 7.1406 3.1914 7.1406 7.1367 0.003907 3.9492-3.1914 7.1523-7.1406 7.1523z" fill="#f4f4f4"/>
</svg>
