<?xml version="1.0" encoding="UTF-8"?>
<svg width="100pt" height="100pt" version="1.1" viewBox="0 0 100 100" xmlns="http://www.w3.org/2000/svg">
 <defs>
  <clipPath id="b">
   <path d="m36 24h28v57.488h-28z"/>
  </clipPath>
  <clipPath id="a">
   <path d="m53 18.512h1v0.48828h-1z"/>
  </clipPath>
 </defs>
 <rect width="100" height="100"/>
 <path d="m46.453 26.18v-0.14453-0.070312c-0.070313 0-0.070313 0-0.070313 0.070312 0 0.070313 0.070313 0.070313 0.070313 0.14453z" fill="#f4f4f4" fill-rule="evenodd"/>
 <g clip-path="url(#b)">
  <path d="m47.602 29.043c0.070313-0.14453 0.14453-0.28516 0.28516-0.35938 0.070312-0.070313 0.14453-0.14453 0.21484-0.28516-0.14453-0.14453-0.28516-0.28516-0.42969-0.5 0-0.070313-0.070313-0.14453 0-0.14453 0-0.070312 0.070313-0.14453 0.21484-0.14453h0.14453 0.14453c0.21484 0 0.28516-0.070313 0.35938-0.35938v-0.14453c-0.14453 0-0.28516-0.070313-0.42969-0.070313-0.070313 0-0.14453-0.070312-0.14453-0.21484 0-0.070312 0.070312-0.070312 0.21484-0.070312 0.21484 0 0.28516 0.21484 0.28516 0.35938 0.070312-0.14453 0.14453-0.28516 0.28516-0.42969 0.070312-0.14453 0-0.21484-0.14453-0.28516-0.070312-0.070312-0.070312-0.14453 0-0.21484 0.070313 0 0.070313-0.070313 0.14453-0.070313 0.21484 0 0.14453-0.21484 0.21484-0.28516-0.21484-0.14453-0.35938-0.28516-0.57422-0.35938 0 0.070312 0.070312 0.070312 0.070312 0.14453v0.070313c-0.070312-0.070313 0-0.14453 0-0.21484 0.070313-0.28516 0.28516-0.42969 0.21484-0.71484 0-0.070312-0.070313-0.070312-0.070313-0.14453h-0.070312c-0.14453 0.070312-0.21484 0.28516-0.28516 0.42969-0.070313 0.28516-0.28516 0.5-0.5 0.71484-0.070313 0-0.070313 0.070312-0.14453 0.070312-0.35937 0-0.42969 0.21484-0.57422 0.42969-0.21484 0.42969-0.42969 0.85938-0.64453 1.2891-0.070312 0.14453-0.21484 0.28516-0.28516 0.42969h-0.070312c0-0.070312-0.070313-0.070312-0.070313-0.14453 0.14453-0.5 0.35938-1.0742 0.57422-1.5781 0 0 0.070312-0.070313 0.070312-0.070313h-0.14453c-0.070312 0-0.21484 0.070313-0.21484 0.14453-0.14453 0.57422-0.35938 1.0742-0.64453 1.5781-0.14453 0.35937-0.28516 0.71484-0.42969 1.0742-0.070313 0.14453-0.070313 0.28516-0.21484 0.35938-0.42969 0.42969-0.57422 0.92969-0.78906 1.5039-0.070312 0.21484-0.14453 0.35937-0.28516 0.57422-0.28516 0.28516-0.42969 0.64453-0.5 1.0039-0.070312 0.42969-0.35938 0.71484-0.57422 1.0742-0.070313 0.070313-0.21484 0.14453-0.28516 0.21484-0.21484 0.070313-0.42969-0.14453-0.42969-0.35938v-0.070312c0.14453-0.42969 0.21484-0.85938 0.35938-1.2891 0.070312-0.42969 0.28516-0.85938 0.5-1.2188 0.28516-0.78906 0.64453-1.5039 0.78906-2.3633 0.070313-0.28516 0.21484-0.57422 0.28516-0.85938 0.21484-0.42969 0.28516-0.92969 0.5-1.4336 0.14453-0.28516 0.21484-0.57422 0.28516-0.85938 0 0 0-0.070312-0.070313-0.070312h-0.070312c-0.14453 0.14453-0.21484 0.35937-0.35938 0.5-0.14453 0.28516-0.21484 0.57422-0.35938 0.78906-0.070313 0.21484-0.14453 0.35938-0.28516 0.5-0.35937 0.42969-0.57422 0.85938-0.85937 1.3594-0.070313 0.14453-0.14453 0.28516-0.21484 0.35938-0.57422 0.64453-1.0039 1.4336-1.5039 2.1484-0.070313 0.14453-0.14453 0.28516-0.21484 0.42969-0.21484 0.5-0.42969 0.92969-0.64453 1.3594 0 0.070312-0.070312 0.070312-0.070312 0.14453-0.21484 0.57422-0.5 1.0742-0.71484 1.6484-0.35938 1.0039-0.71484 1.9336-1.1445 2.8672-0.21484 0.57422-0.35938 1.1445-0.57422 1.6484 0 0.070312-0.070312 0.14453-0.070312 0.28516 0 0.5-0.21484 0.92969-0.35938 1.3594-0.5 1.1445-0.5 2.293-0.14453 3.5117 0 0.070312 0.070312 0.14453 0.070312 0.28516 0.14453 0.57422 0.42969 0.92969 0.92969 1.2188 0.35937 0.21484 0.71484 0.5 1.1445 0.71484 0.21484 0.14453 0.35938 0.28516 0.5 0.5 0.14453 0.21484 0.35938 0.35938 0.64453 0.5 0.35938 0.14453 0.78906 0.35938 1.1445 0.5 0.070313 0.070312 0.21484 0.070312 0.35938 0.14453 1.0742 0.28516 2.0781 0.57422 3.1523 0.85938 0.14453 0 0.21484 0 0.35938 0.070312 0.21484 0 0.42969 0.070313 0.64453 0.14453 0.64453 0.21484 1.2891 0.28516 1.8633 0.5 1.0039 0.28516 2.0078 0.35938 3.082 0.28516h0.64453c0.14453 0 0.21484 0.070312 0.35938 0.070312 0.28516 0.070313 0.64453 0 0.92969 0.14453 0.28516 0.14453 0.57422 0.14453 0.85938 0.21484 0.42969 0.070312 0.78906 0.28516 1.0742 0.64453 0.070313 0.070312 0.070313 0.14453 0.14453 0.21484 0.5 0.42969 0.64453 1.0039 0.71484 1.5781 0.070313 0.78906 0.14453 1.5039-0.070312 2.293v0.28516c-0.070313 0.5-0.14453 0.92969-0.21484 1.4336-0.14453 0.42969-0.35938 0.85938-0.5 1.2891-0.28516 0.85938-0.64453 1.6484-1.0742 2.4375-0.21484 0.42969-0.42969 0.92969-0.64453 1.3594-0.21484 0.42969-0.35938 0.78906-0.57422 1.2188-0.28516 0.42969-0.5 0.92969-0.71484 1.4336-0.21484 0.42969-0.42969 0.85937-0.71484 1.2188-0.28516 0.5-0.57422 1.0039-0.85938 1.4336-0.21484 0.35938-0.42969 0.64453-0.64453 0.92969-0.21484 0.28516-0.42969 0.57422-0.64453 0.85938-0.28516 0.35938-0.57422 0.71484-0.85938 1.0039-0.14453 0.14453-0.28516 0.28516-0.5 0.28516-0.070312 0-0.14453 0-0.14453-0.070312-0.070313-0.14453-0.070313-0.35938-0.070313-0.5-0.070312-0.71484-0.14453-1.4336-0.070312-2.1484v-0.14453c0-0.28516-0.070312-0.5-0.070312-0.78906 0-0.21484 0.070312-0.42969 0-0.71484-0.070313-0.14453-0.070313-0.28516-0.070313-0.42969 0-0.57422-0.070313-1.2188-0.070313-1.793 0-0.14453 0-0.28516-0.070312-0.42969 0-0.21484-0.070312-0.5-0.070312-0.71484-0.070313-1.1445-0.35938-2.293-0.78906-3.3672-0.14453-0.28516-0.21484-0.64453-0.35938-0.92969-0.070312-0.21484-0.21484-0.5-0.35938-0.71484-0.070313-0.14453-0.28516-0.21484-0.42969-0.070312-0.21484 0.21484-0.42969 0.42969-0.5 0.78906 0 0.070313 0 0.14453-0.070313 0.28516-0.14453 0.35938-0.21484 0.64453-0.57422 0.92969-0.070312 0.070313-0.14453 0.14453-0.28516 0.28516 0.070312 0.71484-0.21484 1.4336-0.35938 2.1484-0.070313 0.28516-0.070313 0.5-0.14453 0.78906-0.070313 0.28516 0 0.57422-0.21484 0.85938-0.070312 0.070312-0.070312 0.21484-0.070312 0.35937 0 0.92969-0.070313 1.8633 0 2.7227 0 0.5 0 1.0742 0.070312 1.5781 0 0.35938 0.070312 0.71484 0.070312 1.0742 0.070313 0.71484 0 1.4336-0.070312 2.1484v0.5c0.070312 0.21484 0.070312 0.42969-0.070312 0.71484-0.070313 0.14453-0.070313 0.28516-0.070313 0.42969v0.35938c-0.070313 0.35938-0.21484 0.5-0.57422 0.57422-0.42969 0-0.85938 0.14453-1.2891 0.21484-0.14453 0-0.21484 0.14453-0.21484 0.21484 0 0.070313-0.070312 0.21484 0 0.28516 0.14453 0.42969 0.21484 0.85938 0.57422 1.2188 0.21484 0.21484 0.42969 0.42969 0.5 0.71484 0 0.070313 0.14453 0.21484 0.21484 0.28516 0.070313 0.070312 0.14453 0.070312 0.21484 0.14453 0.78906 0.57422 0.78906 0.57422 1.1445 1.5039 0.070312 0.21484 0.14453 0.35938 0.28516 0.5 0.070312 0.070313 0.14453 0.14453 0.14453 0.21484 0 0.35938 0.28516 0.57422 0.28516 0.92969 0.070313 0.28516 0.21484 0.42969 0.42969 0.5 0.14453 0.070312 0.21484 0.14453 0.28516 0.14453 0.28516 0.14453 0.5 0.21484 0.71484 0.5 0.21484 0.21484 0.5 0.28516 0.78906 0.21484 0.21484-0.070312 0.42969-0.14453 0.5-0.42969 0.14453-0.35938 0.21484-0.78906 0.21484-1.2188 0-0.21484 0-0.5 0.14453-0.71484 0.070313-0.14453 0.21484-0.28516 0.35938-0.35938 0.42969-0.14453 0.71484-0.35938 1.0742-0.57422 0.28516-0.21484 0.57422-0.35938 0.92969-0.42969 0.28516-0.070312 0.5-0.14453 0.78906-0.28516 0.14453-0.070313 0.28516-0.070313 0.42969-0.14453 0.42969 0 0.85937-0.21484 1.2891-0.35937 1.0039-0.35938 1.9336-0.71484 2.9375-1.0039 0.14453-0.070312 0.28516-0.14453 0.42969-0.14453 0.070312 0 0.070312-0.070312 0.14453-0.070312 1.2188-0.28516 2.293-0.85938 3.4375-1.2188 0.71484-0.21484 1.5039-0.42969 2.2227-0.71484 0.78906-0.28516 1.5039-0.64453 2.1484-1.1445-0.011718-0.13281-0.011718-0.27344-0.011718-0.48828 0-0.21484-0.070313-0.42969-0.14453-0.71484-0.5-1.0039-0.21484-0.78906-1.2188-1.4336-0.070312-0.070313-0.14453-0.14453-0.28516-0.21484-0.28516-0.21484-0.64453-0.35938-1.0039-0.21484-0.14453 0.070313-0.35938 0.14453-0.5 0.070313-0.070312-0.070313-0.14453 0-0.21484 0.070312-0.070312 0.070313-0.14453 0.14453-0.21484 0.14453-0.14453 0.070313-0.21484 0.070313-0.35937 0.070313-0.21484 0-0.42969-0.070313-0.57422-0.14453-0.5 0.14453-1.0742 0.28516-1.6484 0.35938-0.35938 0-0.78906 0.14453-1.1445 0.21484-0.28516 0.070313-0.57422 0.14453-0.85938 0.21484-0.070313 0-0.21484-0.14453-0.21484-0.21484 0-0.070312 0.070313-0.14453 0.070313-0.21484 0.14453-0.28516 0.35938-0.64453 0.5-0.92969 0.14453-0.35938 0.21484-0.64453 0.57422-0.85938 0.070313 0 0.070313-0.070312 0.070313-0.14453 0.21484-0.5 0.5-0.92969 0.71484-1.4336 0.42969-1.0039 0.92969-1.9336 1.3594-2.8672 0.21484-0.42969 0.35938-0.78906 0.5-1.2188 0.21484-0.57422 0.42969-1.2188 0.78906-1.793 0.14453-0.28516 0.21484-0.64453 0.21484-0.92969 0-0.21484 0-0.35938 0.14453-0.5 0.14453-0.21484 0.21484-0.5 0.21484-0.78906 0-0.57422 0.070313-1.2188 0.070313-1.793 0-0.57422-0.070313-1.1445-0.21484-1.6484-0.070313-0.42969-0.21484-0.85938-0.35938-1.2891-0.070313-0.28516-0.28516-0.57422-0.5-0.85938-0.42969-0.5-0.78906-0.92969-1.1445-1.5039-0.070313-0.070313-0.14453-0.21484-0.28516-0.21484-0.066406-0.28516-0.21094-0.42578-0.35547-0.64062-0.5-0.64453-1.0039-1.2891-1.5781-1.9336-0.070313-0.070312-0.14453-0.14453-0.14453-0.21484-0.14453-0.070313-0.21484-0.21484-0.35938-0.21484s-0.28516 0.070313-0.42969 0.14453c-0.14453-0.14453-0.35938-0.21484-0.57422-0.35938-0.42969-0.35938-0.92969-0.64453-1.3594-1.0039-0.28516-0.21484-0.57422-0.42969-0.92969-0.5-0.28516-0.070313-0.57422-0.28516-0.92969-0.28516-0.21484 0-0.42969-0.14453-0.57422-0.14453-0.5-0.14453-1.0039-0.28516-1.5781-0.35938h-0.35938c-0.71484-0.21484-1.4336-0.14453-2.2227-0.21484-0.78906-0.070313-1.5781-0.21484-2.3633-0.35938-0.070313 0-0.14453 0-0.14453-0.070313-0.14453-0.070312-0.28516-0.14453-0.28516-0.28516-0.070312-0.28516-0.070312-0.57422 0-0.78906 0.14453-0.28516 0-0.5 0.14453-0.78906 0.070313-0.21484 0.14453-0.42969 0.14453-0.71484v-0.28516c0.070312-0.28516 0.14453-0.5 0.28516-0.78906 0.14453-0.28516 0.42969-0.5 0.42969-0.85938 0-0.28516 0.21484-0.57422 0.28516-0.85937 0.070312-0.28516 0.14453-0.64453 0.28516-0.92969 0.14453-0.42969 0.28516-0.85938 0.42969-1.2891 0.21484-0.5 0.42969-1.0039 0.57422-1.5039 0.070313-0.14453 0.070313-0.21484 0.070313-0.35938 0.070312-0.21484 0.14453-0.42969 0.14453-0.57422 0-0.070313-0.070312-0.070313-0.070312-0.14453-0.070313-0.070312-0.14453-0.21484-0.070313-0.35938 0.14453-0.28516 0.28516-0.57422 0.35938-0.92969 0.21484-0.5 0.42969-0.92969 0.5-1.4336 0-0.14453 0.070312-0.28516 0-0.42969-0.070312-0.21484-0.070312-0.42969 0-0.64453 0.28516-0.64453 0.28516-1.2891 0.42969-2.0078-0.066407-0.003907-0.066407-0.003907 0.078124-0.21875zm-1.293 2.793c0 0.070312 0.070312 0.14453 0 0.14453v-0.14453c0.070312 0 0.070312-0.070313 0.070312-0.14453h0.070313v0.14453c-0.066407 0.074218-0.14062 0-0.14062 0z" fill="#f4f4f4" fill-rule="evenodd"/>
 </g>
 <path d="m51.969 21.664c0.070312 0 0.070312 0.070313 0.14453 0.070313 0.35938-0.070313 0.57422-0.28516 0.71484-0.57422 0-0.070312 0.070313-0.14453-0.070313-0.21484-0.14453-0.070312-0.35937-0.14453-0.42969-0.070312 0 0-0.070313 0-0.070313 0.070312-0.21484 0.21484-0.28516 0.42969-0.35937 0.71484 0.070312-0.066406 0.070312 0.003906 0.070312 0.003906z" fill="#f4f4f4" fill-rule="evenodd"/>
 <path d="m51.109 24.387c0.074219-0.14453 0.074219-0.21484 0.14453-0.35938 0 0 0-0.070313-0.070312-0.070313h-0.070313c-0.074219 0.14453-0.074219 0.28516-0.003906 0.42969z" fill="#f4f4f4" fill-rule="evenodd"/>
 <path d="m47.957 31.766c-0.21484 0-0.21484 0.21484-0.28516 0.28516-0.070313 0.070313 0 0.14453 0.070313 0.14453 0 0 0.070312 0 0.070312-0.070312 0.14453-0.074219 0.14453-0.21484 0.14453-0.35938z" fill="#f4f4f4" fill-rule="evenodd"/>
 <path d="m53.117 19.945c0.070312 0.070313 0.070312 0 0.14453 0 0-0.070312-0.070313-0.070312-0.070313-0.14453-0.074218 0-0.14453 0.070313-0.074218 0.14453-0.070313-0.074218-0.070313-0.074218 0 0z" fill="#f4f4f4" fill-rule="evenodd"/>
 <path d="m49.32 24.746c0.070313 0 0.070313-0.070313 0.14453-0.070313 0-0.070312 0-0.14453-0.070313-0.14453-0.070312 0-0.14453 0-0.14453 0.070312-0.003906 0.070313-0.003906 0.14453 0.070312 0.14453z" fill="#f4f4f4" fill-rule="evenodd"/>
 <g clip-path="url(#a)">
  <path d="m53.762 18.582v-0.070312h-0.070313z" fill="#f4f4f4" fill-rule="evenodd"/>
 </g>
 <path d="m49.105 23.312v0.070312l0.070312-0.070312z" fill="#f4f4f4" fill-rule="evenodd"/>
</svg>
