<?xml version="1.0" encoding="UTF-8"?>
<svg width="100pt" height="100pt" version="1.1" viewBox="0 0 100 100" xmlns="http://www.w3.org/2000/svg">
 <defs>
  <clipPath id="a">
   <path d="m32 18.512h36v62.977h-36z"/>
  </clipPath>
 </defs>
 <rect width="100" height="100"/>
 <g clip-path="url(#a)">
  <path d="m63.227 21.188c0.23438 0.31641 0.39453 0.70703 0.47266 1.1797 0.47266 1.6523 0.70703 3.3867 1.1016 5.0391 0 0.078125 0.078125 0.23438 0.078125 0.31641 0 0.78906 0.078125 1.4961 0 2.2812 0 0.31641-0.078125 0.62891-0.15625 0.94531 0 0.15625-0.078125 0.31641-0.078125 0.47266 0.15625 0.70703-0.078125 1.418-0.15625 2.2031-0.003906 0.63281-0.23828 1.3398-0.39844 2.0469-0.078125 0.47266-0.15625 0.86719-0.31641 1.3398-0.078126 0.23438-0.078126 0.55078-0.15625 0.78906-0.078126 0.78906-0.23438 1.4961-0.47266 2.2031-0.15625 0.39453-0.31641 0.86719-0.23438 1.3398 0.078125 0.23438 0 0.47266-0.078125 0.70703-0.31641 1.1016-0.47266 2.2812-0.86719 3.3047-0.078125 0.23438-0.078125 0.55078-0.15625 0.78906-0.23438 0.62891-0.31641 1.3398-0.62891 1.9688-0.23438 0.62891-0.39453 1.3398-0.62891 1.9688-0.23438 0.78906-0.47266 1.5742-0.70703 2.2812-0.078125 0.078125-0.078125 0.23438-0.078125 0.31641-0.31641 0.55078-0.55078 1.1797-0.70703 1.8125-0.15625 0.62891-0.47266 1.1016-0.62891 1.7305-0.23438 0.86719-0.70703 1.6523-0.94531 2.5977-0.15625 0.47266-0.39453 0.86719-0.62891 1.3398-0.078125 0.23438-0.23438 0.47266-0.31641 0.70703-0.31641 0.86719-0.62891 1.7305-1.1797 2.5195-0.15625 0.62891-0.55078 1.1016-0.78906 1.6523 0 0.078126-0.078124 0.23438-0.078124 0.31641 0 0.078125 0.078124 0.23438 0.23437 0.23438 0.23438-0.078125 0.47266-0.078125 0.62891-0.23438 0.23438-0.15625 0.39453-0.31641 0.70703-0.23438 0.31641 0 0.62891-0.078125 0.86719-0.15625 0.39453-0.15625 0.86719-0.39453 1.2578-0.55078 0.39453-0.15625 0.78906-0.23437 1.2578-0.23437 0.55078 0.078124 1.1016 0 1.7305-0.078126 0.55078-0.078124 1.0234-0.15625 1.5742-0.078124 0.62891-0.15625 1.3398 0 2.0469-0.23438h0.31641c0.47266 0.23438 1.0234 0.15625 1.5742 0.23438h0.31641c0.078125 0 0.23438 0.078124 0.23438 0.15625 0.16016-0.011719 0.16016 0.14844 0.082031 0.22656-0.94531 1.0234-1.9688 1.9688-3.0703 2.6758-0.15625 0.078125-0.23438 0.15625-0.39453 0.23438-0.86719 0.78906-1.8906 1.2617-2.7539 1.9688-0.15625 0.078125-0.23437 0.15625-0.39453 0.23438-0.62891 0.16016-1.1836 0.55469-1.6523 0.94922-0.31641 0.23438-0.62891 0.47266-0.94531 0.62891-0.39453 0.15625-0.78906 0.47266-1.1797 0.70703-0.47266 0.39453-1.0234 0.62891-1.5742 1.0234-0.94531 0.62891-1.8125 1.2578-2.7539 1.8906-0.87109 0.47266-1.6562 1.1797-2.5234 1.7305-0.15625 0.15625-0.39453 0.23438-0.55078 0.39453-0.55078 0.62891-1.2578 1.1016-1.9688 1.5742-0.62891 0.47266-1.2578 0.86719-1.8125 1.418-0.15625 0.15625-0.31641 0.23437-0.47266 0.39453-0.31641 0.15625-0.55078 0.39453-0.70703 0.70703-0.078125 0.15625-0.23438 0.31641-0.31641 0.47266-0.23438 0.078125-0.39453 0.078125-0.55078 0.15625-0.39453 0.078125-0.78906 0-1.1016-0.23438-0.31641-0.23438-0.62891-0.39453-0.86719-0.70703-0.078125-0.15625-0.23438-0.31641-0.47266-0.31641-0.23437-0.078125-0.47266-0.23438-0.62891-0.47266-0.55078-0.55078-1.1797-1.1016-1.418-1.9688-0.074219-0.15625-0.15234-0.31641-0.23047-0.31641-0.31641-0.15625-0.39453-0.47266-0.31641-0.78906 0-0.15625 0.078126-0.39453-0.078124-0.55078-0.47266-0.55078-0.62891-1.3398-0.78906-1.9688-0.15625-0.47266-0.15625-0.94531-0.23438-1.4961 0-0.078125-0.078125-0.23438-0.078125-0.31641 0.078125-0.78906-0.15625-1.5742-0.47266-2.2812v-0.078126c-0.078125-0.70703-0.39453-1.3398-0.47266-1.9688 0-0.15625-0.078124-0.39453-0.078124-0.55078-0.078126-0.55078 0-1.1797-0.23438-1.6523 0-0.55078-0.15625-1.1016-0.31641-1.6523-0.15625-0.78906-0.31641-1.4961-0.39453-2.2812-0.078125-0.78906-0.15625-1.4961-0.23438-2.2812-0.15625-1.3398-0.31641-2.6758-0.55078-4.0156-0.15625-0.70703-0.39453-1.418-0.55078-2.125-0.23438-0.31641-0.23438-0.78906-0.39453-1.1797-0.15625-0.31641-0.23438-0.70703-0.39453-1.1016-0.078125-0.15625-0.078125-0.39453-0.15625-0.55078-0.078125-0.23438-0.078125-0.55078-0.15625-0.78906-0.15625-0.55078-0.31641-1.1016-0.47266-1.7305 0.078125-0.23438 0.15625-0.47266 0.23438-0.78906 0.078125-0.15625 0.15625-0.31641 0.31641-0.47266 0.15625-0.15625 0.31641-0.23438 0.39453-0.39453 0.23438-0.31641 0.31641-0.62891 0.23438-0.94531 0-0.078125-0.078125-0.15625-0.078125-0.23438-0.078125-0.15625-0.078125-0.39453 0.078125-0.55078 0.15625-0.078126 0.31641 0 0.39453 0.078124 0.23437 0.078126 0.39453 0.15625 0.55078 0.39453 0.39453 0.47266 0.86719 0.86719 1.2578 1.2578 0.31641 0.39453 0.70703 0.70703 1.0234 1.1016 0.23438 0.23438 0.39453 0.47266 0.55078 0.70703 0.55078 0.78906 1.0234 1.5742 1.5742 2.3633 0.078125 0.15625 0.23438 0.31641 0.39453 0.39453 0.78906 0.62891 1.1797 1.4961 1.4961 2.4414 0.31641 1.1016 0.70703 2.125 0.94531 3.2266 0.39453 0.86719 0.55078 1.7305 0.70703 2.6758 0.15625 0.86719 0.31641 1.7305 0.39453 2.5977 0.078125 0.47266 0.15625 0.86719 0.23438 1.3398 0 0.078126 0.23438 0.15625 0.31641 0.078126 0.23438-0.23438 0.47266-0.39453 0.62891-0.62891 0.23438-0.39453 0.47266-0.78906 0.70703-1.1797 0.39453-0.70703 0.70703-1.418 1.3398-1.9688l0.15625-0.15625c0.31641-0.78906 0.86719-1.3398 1.2578-2.0469 0.078125-0.15625 0.23438-0.31641 0.23438-0.47266 0.23438-0.62891 0.62891-1.1016 0.94531-1.6523 0.15625-0.23438 0.39453-0.47266 0.47266-0.78906 0.23437-0.86719 0.70703-1.5742 1.1016-2.3633 0.23438-0.47266 0.47266-1.0234 0.70703-1.5742 0.23438-0.55078 0.47266-1.0234 0.70703-1.5742 0.078126-0.23438 0.23438-0.47266 0.47266-0.62891 0.23438-0.23438 0.39453-0.55078 0.55078-0.86719 0.32031-0.94531 0.71484-1.6523 1.1094-2.2812 0.15625-0.31641 0.31641-0.70703 0.47266-1.0234s0.23438-0.55078 0.39453-0.86719c0.078126-0.15625 0.23438-0.23438 0.39453-0.23438 0.15625 0 0.31641 0.078125 0.47266 0.078125s0.31641-0.15625 0.31641-0.39453c0-0.078126-0.078125-0.15625-0.078125-0.23438-0.078125-0.15625 0-0.31641 0.15625-0.39453 0.23438-0.15625 0.39453-0.31641 0.47266-0.62891 0.15625-0.47266 0.39453-0.94531 0.47266-1.418 0-0.15625 0.078125-0.39453 0.15625-0.55078 0.078125-0.31641 0.47266-0.39453 0.55078-0.70703 0-0.23438-0.078125-0.55078-0.078125-0.78906 0-0.078125 0-0.23438 0.078125-0.31641 0.23438-0.31641 0.31641-0.70703 0.31641-1.1016 0-0.15625 0-0.31641 0.078125-0.47266 0.31641-0.62891 0.31641-1.2578 0.47266-1.8906 0.23438-0.86719 0.31641-1.7305 0.47266-2.5977v-0.23438c0-0.23438-0.15625-0.39453-0.39453-0.47266-0.078126 0-0.15625-0.078125-0.15625-0.078125v-0.23438c0.23437-0.55078 0.31641-1.1016 0.47266-1.6523 0.15625-0.70703 0.31641-1.4961 0.47266-2.2031 0.15625-0.62891 0.31641-1.2578 0.31641-1.8906 0-0.23438 0.15625-0.31641 0.31641-0.39453 0.78906-0.23438 1.1797-0.86719 1.1797-1.6523 0.078125-0.55078 0.15625-1.0234 0-1.5742-0.078125-0.31641 0-0.70703 0.15625-1.0234 0.31641-0.55078 0.39453-1.1016 0.23438-1.6523 0 0 0-0.078125 0.078125-0.078125h0.23438s0.078125 0 0.078125 0.078125c0.31641 0.62891 0.78906 1.1797 0.86719 1.8906-0.078126 0-0.15625-0.078125-0.23438-0.078125-0.15625 0-0.31641 0.15625-0.23437 0.23438 0.15625 0.31641 0.23437 0.62891 0.47266 0.86719h0.078125l0.078125-0.078126c0.074218-0.16016 0.074218-0.24219 0.074218-0.32031zm-3.543 9.2891h-0.078125c-0.15625 0.078126-0.23438 0.31641-0.078125 0.47266l0.078125 0.078125c0.078125 0 0.15625-0.078125 0.15625-0.078125 0-0.15625 0.078125-0.3125-0.078125-0.47266zm-4.332 13.305v0.078125l0.078126 0.078125c0.078124 0 0.078124-0.078125 0.078124-0.15625h-0.15625zm4.4102-14.25c0-0.078125-0.078125-0.15625-0.15625-0.078125l-0.078125 0.078125c0 0.078125 0.078125 0.078125 0.078125 0.15625 0.078125 0.003906 0.078125-0.074219 0.15625-0.15625z" fill="#f4f4f4" fill-rule="evenodd"/>
 </g>
 <path d="m58.031 33.941v-0.15625s0-0.078125 0.078125-0.078125c0 0 0 0.078125-0.078125 0.23438 0.078125-0.078125 0 0 0 0z" fill="#f4f4f4" fill-rule="evenodd"/>
</svg>
