<?xml version="1.0" encoding="UTF-8"?>
<svg width="100pt" height="100pt" version="1.1" viewBox="0 0 100 100" xmlns="http://www.w3.org/2000/svg">
 <defs>
  <clipPath id="b">
   <path d="m21 7h48v83h-48z"/>
  </clipPath>
  <clipPath id="a">
   <path d="m50 94.531-44.531-44.531 44.531-44.531 44.531 44.531z"/>
  </clipPath>
 </defs>
 <rect width="100" height="100"/>
 <g clip-path="url(#b)">
  <g clip-path="url(#a)">
   <path d="m52.355 8.5859c0.10938-0.10938 0.16406-0.16406 0.32422-0.10938 0.16406 0.48828 0.37891 0.92188 0.37891 1.4609 0 0.21484 0.054687 0.37891 0.10938 0.54297 0.054687 0.16406 0.26953 0.26953 0.37891 0.37891v1.9492c0 0.21484 0 0.43359-0.054687 0.59766-0.16406 0.48828-0.10938 0.97656 0 1.5156 0.10937 0.54297 0.054687 1.1367 0.16406 1.6797 0 0.10938 0 0.21484-0.054688 0.26953-0.054687 0.37891-0.16406 0.70312-0.16406 1.0312-0.054688 0.16406 0 0.32422 0 0.43359 0.21484 0.54297 0.10938 0.97656 0.054688 1.4609-0.054688 0.37891-0.054688 0.70312-0.054688 1.0312 0.054688 0.48828 0.054688 1.0312 0.10938 1.5156 0 0.21484-0.054687 0.48828 0 0.75781 0.054687 0.37891-0.10938 0.75781 0.10938 1.082 0 0.10938 0.054688 0.26953 0.054688 0.37891 0 0.21484-0.10938 0.43359-0.10938 0.64844 0.21484 0.43359 0.10938 0.86719 0.21484 1.3008 0.054688 0.26953 0.054688 0.48828 0 0.75781-0.10938 0.32422-0.054687 0.70312-0.054687 1.0312 0.21484 0.43359 0.10938 0.86719 0.10938 1.3008 0 0.21484-0.054688 0.37891 0 0.54297 0.16406 0.8125 0.16406 1.5703 0.054687 2.3281-0.054687 0.37891-0.054687 0.8125-0.054687 1.2461 0 0.64844-0.10938 1.3008-0.054688 1.8945 0 0.21484 0.054688 0.48828 0.10938 0.75781 0.16406 0.59766 0.21484 1.1914 0.16406 1.7891 0 0.10938-0.054688 0.26953 0.054687 0.37891 0.16406 0.37891 0.10938 0.64844 0 0.97656-0.10938 0.21484-0.10938 0.43359 0 0.64844 0.10938 0.54297 0.054688 1.0312 0.10938 1.5156-0.054687 0.92187-0.054687 1.7891 0.054688 2.6562 0.054687 0.48828 0 0.97656 0 1.5156-0.054688 0.59766-0.10938 1.082-0.16406 1.6797 0 0.10938 0 0.21484 0.054688 0.37891 0.10938 0.43359 0.10938 0.97656 0 1.4102-0.054688 0.26953-0.10938 0.54297-0.054688 0.8125 0.10938 0.86719 0.054688 1.6797-0.054687 2.4375-0.054688 0.48828-0.16406 0.92188 0 1.4102 0.054687 0.16406 0 0.32422 0 0.43359-0.10938 0.64844-0.10938 1.3008-0.10938 1.8438v0.10938c-0.16406 0.8125-0.054688 1.5703-0.10938 2.3828 0 0.10938-0.054688 0.16406 0 0.21484 0.21484 0.43359 0 0.86719 0 1.3008s0 0.86719-0.054688 1.3555c-0.054687 0.37891-0.054687 0.8125-0.054687 1.2461-0.054688 0.70312-0.16406 1.4609-0.21484 2.168-0.054687 0.16406 0 0.32422 0 0.43359 0.054687 0.26953 0 0.43359 0 0.64844-0.054687 0.26953 0 0.43359 0 0.64844l0.10938 0.10938s0.10938 0 0.054688-0.054688c0.26953-0.37891 0.54297-0.75781 0.75781-1.1914 0.10938-0.21484 0.16406-0.37891 0.32422-0.54297 0.10938-0.10938 0.21484-0.32422 0.21484-0.54297 0.10938-0.32422 0.26953-0.59766 0.48828-0.92188 0.54297-0.75781 0.97656-1.5156 1.4102-2.2734 0.26953-0.37891 0.48828-0.8125 0.75781-1.1914 0.48828-0.59766 0.92188-1.2461 1.3555-1.7891 0.054688-0.054688 0.10938-0.10938 0.054688-0.16406 0.054687-0.48828 0.48828-0.8125 0.64844-1.1914 0.16406-0.054688 0.26953-0.054688 0.37891-0.16406 0.26953-0.054687 0.54297-0.21484 0.75781-0.32422 0.21484-0.21484 0.48828-0.26953 0.70312-0.48828 0.26953-0.26953 0.54297-0.43359 0.92188-0.37891 0.21484 0 0.37891-0.16406 0.59766-0.26953 0.32422-0.21484 0.75781-0.21484 1.1914 0 0.054687 0.054687 0.10937 0.10938 0.10937 0.10938 0.16406 0.16406 0.37891 0.16406 0.54297 0.10938 0.10938 0 0.26953-0.054688 0.37891-0.054688 0.16406 0.054688 0.32422 0 0.43359 0.10938 0.26953 0.16406 0.48828 0.26953 0.75781 0.43359 0.16406 0.054688 0.32422 0.21484 0.43359 0.32422 0.21484 0.32422 0.54297 0.54297 0.8125 0.8125 0.10937 0.10938 0.26953 0.26953 0.32422 0.43359 0.10938 0.21484 0.10938 0.43359-0.10938 0.54297-0.43359 0.21484-0.92188 0.48828-1.2461 0.8125-0.21484 0.21484-0.43359 0.32422-0.59766 0.59766-0.21484 0.32422-0.43359 0.64844-0.8125 0.8125-0.10938 0-0.16406 0.16406-0.26953 0.26953-0.43359 0.54297-0.92188 1.1367-1.3008 1.7344-0.16406 0.16406-0.26953 0.37891-0.37891 0.59766-0.37891 0.70312-0.8125 1.3555-1.2461 2.0039-0.32422 0.54297-0.70312 1.0312-1.0312 1.5703-0.32422 0.54297-0.70312 1.0312-1.0312 1.5703-0.10938 0.10938-0.16406 0.26953-0.26953 0.37891-0.10938 0.43359-0.32422 0.75781-0.64844 1.082-0.10938 0.10938-0.16406 0.26953-0.26953 0.37891-0.54297 1.082-1.3555 2.1133-1.8438 3.25-0.054688 0.054687-0.054688 0.16406-0.16406 0.26953-0.21484 0.21484-0.43359 0.43359-0.54297 0.64844-0.10938 0.21484-0.21484 0.54297-0.32422 0.75781-0.16406 0.26953-0.37891 0.59766-0.59766 0.8125-0.21484 0.21484-0.43359 0.54297-0.54297 0.86719-0.16406 0.48828-0.32422 0.86719-0.64844 1.3008-0.10938 0.10938-0.10938 0.21484-0.16406 0.37891-0.10938 0.10938-0.10938 0.21484-0.21484 0.32422-0.26953 0.16406-0.43359 0.43359-0.59766 0.70312-0.16406 0.26953-0.21484 0.54297-0.48828 0.8125-0.054687 0.054687-0.10937 0.10938-0.10937 0.10938-0.10938 0.21484-0.10938 0.43359-0.21484 0.64844-0.054688 0.16406-0.26953 0.37891-0.32422 0.54297-0.054687 0.054688-0.054687 0.16406-0.054687 0.26953 0 0.21484 0.054687 0.48828 0 0.75781-0.054688 0.48828-0.16406 1.0312 0 1.5156 0.10937 0.43359 0.26953 0.92188 0.59766 1.2461 0.054687 0.054687 0 0.21484-0.10938 0.21484-0.32422 0.10938-0.59766 0.16406-0.92188 0.16406-0.10938 0-0.26953-0.054687-0.37891-0.054687-0.046876 0.39062-0.26172 0.60547-0.26172 0.82422 0 0.10938 0 0.21484 0.054687 0.26953 0.26953 0.37891 0.37891 0.92187 0.70312 1.2461 0.26953 0.26953 0.43359 0.64844 0.54297 0.97656 0.050781 0.054687 0.050781 0.16016 0.050781 0.26953-0.050781 0.16406-0.16016 0.26953-0.21484 0.32422-0.59766 0.16406-1.1367 0.16406-1.6797 0.16406-0.26953-0.054687-0.59766-0.054687-0.86719-0.10938-0.21484 0-0.43359-0.10938-0.54297-0.21484-0.21484-0.21484-0.48828-0.37891-0.70312-0.37891-0.48828-0.054687-0.8125-0.27344-1.1914-0.54297-0.70312-0.70312-1.6797-0.92187-2.6562-0.92187-0.16016 0.054687-0.26953 0.054687-0.42969 0-0.054687-0.054688-0.16406-0.054688-0.16406-0.16016 0-0.32422-0.16406-0.37891-0.43359-0.43359-0.21484 0-0.37891-0.054688-0.59766-0.054688-0.10937 0-0.26953-0.054688-0.37891-0.16406-0.16406-0.16406-0.32422-0.21484-0.54297-0.21484-0.21484 0-0.32422-0.21484-0.21484-0.43359 0.10938-0.21484 0.21484-0.43359 0.32422-0.54297 0.21484-0.32422 0.48828-0.70312 0.70313-1.0312 0.16406-0.26953 0.16406-0.59766-0.054688-0.8125-0.43359-0.54297-0.8125-1.1367-1.1914-1.7344-0.050782-0.26953-0.375-0.59375-0.64844-0.97266-0.26953-0.26953-0.54297-0.54297-0.75781-0.86719-0.26953-0.26953-0.43359-0.64844-0.70312-0.92187-0.10938-0.10938-0.26953-0.26953-0.37891-0.37891-0.70312-0.59766-1.3555-1.2461-1.8945-2.0039-0.32422-0.43359-0.75781-0.86719-1.1367-1.2461-0.37891-0.37891-0.70312-0.70312-1.0312-1.1367l-0.48828-0.48828c-0.16406-0.16406-0.26953-0.26953-0.32422-0.43359-0.054687-0.16406-0.16406-0.37891-0.32422-0.43359-0.64844-0.43359-1.0312-1.0312-1.4609-1.5703-0.54297-0.75781-1.082-1.5156-1.7344-2.168-0.16406-0.16406-0.26953-0.37891-0.43359-0.54297-0.26953-0.37891-0.59766-0.70312-0.92188-1.1367-0.16406-0.16406-0.32422-0.43359-0.43359-0.64844-0.43359-0.64844-0.92188-1.2461-1.4609-1.8945-0.32422-0.32422-0.59766-0.70312-0.92188-1.1367-0.10938-0.10938-0.16406-0.16406-0.21484-0.32422-0.21484-0.54297-0.64844-0.97656-0.97656-1.4102-0.64844-0.75781-1.3008-1.5156-1.8945-2.3281-0.16406-0.16406-0.32422-0.32422-0.54297-0.43359-0.48828-0.26953-0.8125-0.70312-1.0312-1.2461-0.054688-0.054688-0.054688-0.16406-0.054688-0.26953 0.10938-0.32422 0.21484-0.54297 0.54297-0.75781 0.43359-0.21484 0.75781-0.32422 1.3008-0.21484 0.26953 0.054688 0.54297-0.21484 0.8125-0.054687 0.21484 0.10938 0.43359 0.21484 0.64844 0.32422 0.48828-0.26953 0.86719-0.21484 1.3555 0.054687 0.26953 0.16406 0.43359 0.32422 0.70312 0.48828 0.37891 0.16406 0.70312 0.16406 1.082 0.32422 0.26953 0.16406 0.70312 0.16406 1.0312 0.16406 0.21484 0 0.43359 0.10938 0.64844 0.21484 0.37891 0.16406 0.43359 0.32422 0.32422 0.75781 0 0.10938-0.054687 0.16406-0.054687 0.26953 0.21484 0.32422 0.48828 0.70312 0.64844 1.082 0.16406 0.26953 0.32422 0.54297 0.48828 0.8125 0.054688 0.054688 0.054688 0.16406 0.16406 0.26953 0.48828 0.37891 0.75781 0.97656 1.2461 1.4609 0.48828 0.48828 0.86719 0.97656 1.3008 1.5156 0.21484 0.32422 0.54297 0.64844 0.75781 0.97656 0.48828 0.59766 0.86719 1.1914 1.2461 1.7891 0.10938 0.21484 0.26953 0.37891 0.48828 0.59766 0.10937 0.10937 0.21484 0.21484 0.26953 0.37891 0.37891 0.59766 0.70312 1.2461 1.1367 1.8945 0.16406 0.26953 0.32422 0.43359 0.54297 0.64844 0.37891 0.37891 0.64844 0.75781 0.97656 1.1914 0.54297 0.75781 1.1914 1.4102 1.7891 2.1133 0.16406 0.16406 0.26953 0.37891 0.43359 0.54297 0.054687 0.054687 0.10938 0.21484 0.21484 0.21484 0.54297 0.43359 0.92188 1.0312 1.4102 1.5156 0.26953 0.26953 0.59766 0.59766 0.97656 0.75781 0.21484-0.32422 0.37891-0.59766 0.37891-1.0312 0.054687-0.59766 0.054687-1.1367 0.10938-1.7344 0.054687-0.37891 0-0.75781 0.16406-1.1367 0.10938-0.21484 0-0.43359 0.054688-0.70312 0.054687-0.37891 0.054687-0.8125 0.16406-1.2461 0.16406-0.92188 0.26953-1.7891 0.43359-2.707v-0.64844c-0.10938-1.082-0.054687-2.1133 0.054687-3.1953 0.10938-0.97656 0.16406-2.0039 0.21484-2.9258 0-0.21484-0.054687-0.37891 0-0.54297 0-0.10938 0-0.32422 0.054688-0.48828 0-0.10938 0.054687-0.26953 0.054687-0.37891 0-0.43359-0.10938-0.86719 0.054688-1.2461-0.054688-0.37891 0-0.75781 0.054687-1.1367 0-0.21484-0.054687-0.37891 0-0.54297 0-1.082-0.10938-2.168-0.054687-3.1953 0.054687-0.16406 0-0.32422-0.054688-0.48828-0.054687-0.48828-0.10938-0.97656-0.10938-1.4102 0-0.43359 0.10938-0.97656 0.10938-1.4102 0-0.43359 0.16406-0.8125 0.16406-1.2461 0-0.43359 0.10938-0.86719 0.16406-1.3555 0.054688-0.48828 0.054688-0.92188 0.054688-1.4609 0-0.75781 0.10938-1.5156 0.10938-2.2734 0-0.10938 0.054687-0.26953 0.054687-0.37891-0.16406-0.92188 0-1.8438 0-2.707 0-0.43359 0.054688-0.8125 0.16406-1.2461 0.054687-0.26953 0.10938-0.54297 0.054687-0.8125-0.054687-0.48828-0.10938-1.082-0.16406-1.5703-0.10938-0.86719-0.054688-1.7891-0.054688-2.6562v-0.64844c-0.054687-1.0312-0.054687-2.1133 0-3.1406 0-0.10938 0-0.32422-0.054687-0.48828 0-0.43359-0.054688-0.8125 0-1.1914 0.054687-0.16406 0-0.32422-0.054688-0.48828v-0.43359c0.16406-0.37891 0-0.75781 0.054688-1.1367 0-0.10938-0.054688-0.26953-0.054688-0.37891-0.16406-0.37891-0.26953-0.8125-0.21484-1.1914 0.054687-0.37891 0.054687-0.8125 0-1.1914-0.054688-1.0312-0.16406-2.0039-0.21484-3.0352-0.054688-0.70312-0.16406-1.3555-0.26953-2.0039-0.10937-0.54297-0.16406-1.0312-0.21484-1.625 0-0.32422-0.054688-0.59766-0.10938-0.97656-0.10938-0.64844-0.21484-1.4102-0.16406-2.1133 0-0.21484 0-0.43359-0.10938-0.54297-0.26953-0.37891-0.16406-0.70312-0.10938-1.082 0.10938-0.21484 0.16406-0.37891 0.37891-0.48828 0.48828-0.26953 0.97656-0.54297 1.3555-0.8125 0.10938-0.10938 0.16406-0.16406 0.21484-0.32422 0.054688-0.26953 0.16406-0.37891 0.43359-0.43359 0.48828-0.16406 0.92188-0.48828 1.3555-0.8125 0.16406-0.16406 0.37891-0.26953 0.54297-0.32422 0.26953-0.16406 0.59766-0.37891 0.75781-0.64844 0.16406-0.16406 0.32422-0.32422 0.43359-0.54297 0.16406-0.16406 0.26953-0.37891 0.32422-0.54297 0.21484 0 0.37891 0.054687 0.54297 0 0.16406-0.054688 0.32422-0.21484 0.37891-0.37891 0.054688-0.16406 0.10938-0.32422 0.26953-0.37891 0.054688-0.054687 0.16406-0.054687 0.26953-0.054687 0 0 0.16406 0.054687 0.10938 0.10938 0 0.10938 0 0.21484-0.054688 0.26953 0.09375 0 0.14844 0.16406 0.14844 0.27344 0.054687 0.16406 0.054687 0.26953 0.054687 0.37891l0.054688 0.054687c0.054687-0.054687 0.10938-0.10938 0.054687-0.16406 0-0.10938-0.054687-0.16406-0.16406-0.26953z" fill="#f4f4f4" fill-rule="evenodd"/>
  </g>
 </g>
</svg>
