<?xml version="1.0" encoding="utf-8"?>
<!-- Generator: Adobe Illustrator 28.1.0, SVG Export Plug-In . SVG Version: 6.00 Build 0)  -->
<svg version="1.1" id="Layer_1" xmlns="http://www.w3.org/2000/svg" xmlns:xlink="http://www.w3.org/1999/xlink" x="0px" y="0px"
	 viewBox="0 0 55.4 60.2" style="enable-background:new 0 0 55.4 60.2;" xml:space="preserve">
<style type="text/css">
	.st0{fill-rule:evenodd;clip-rule:evenodd;fill:#F4F4F4;}
</style>
<path class="st0" d="M21.2,55.4H9.3c-2.2,0-3.9-1.8-3.9-3.9V33.1c0-0.7-0.6-1.3-1.3-1.3c-1.6,0-3-1-3.6-2.4
	c-0.6-1.5-0.3-3.2,0.9-4.3L24.9,1.4c1.5-1.5,4-1.5,5.6,0l23.6,23.6c1.1,1.1,1.5,2.8,0.9,4.3c-0.6,1.5-2,2.4-3.6,2.4
	c-0.7,0-1.3,0.6-1.3,1.3v18.4c0,2.2-1.8,3.9-3.9,3.9H34.3V38.3c0-0.7-0.6-1.3-1.3-1.3H22.5c-0.7,0-1.3,0.6-1.3,1.3L21.2,55.4
	L21.2,55.4z"/>
</svg>
