<?xml version="1.0" encoding="UTF-8"?>
<svg width="100pt" height="100pt" version="1.1" viewBox="0 0 100 100" xmlns="http://www.w3.org/2000/svg">
 <defs>
  <clipPath id="a">
   <path d="m18.512 31h62.977v37h-62.977z"/>
  </clipPath>
 </defs>
 <rect width="100" height="100"/>
 <g clip-path="url(#a)">
  <path d="m43.324 67.945c-0.53125-0.22656-0.91016-0.53125-1.2891-0.91016-0.45703-0.45703-0.83594-0.91016-1.3672-1.2891-0.15234-0.074219-0.22656-0.22656-0.30469-0.37891-0.074219-0.074219-0.22656-0.22656-0.37891-0.30469-0.53125-0.22656-0.91016-0.68359-1.3672-0.98828-0.53125-0.37891-1.0625-0.68359-1.5156-1.1367-0.074218-0.074219-0.22656-0.15234-0.30469-0.15234-0.45703-0.15234-0.83594-0.37891-1.1367-0.75781-0.074218-0.074219-0.15234-0.15234-0.30469-0.22656-0.91016-0.45703-1.668-1.1367-2.5039-1.668-0.53125-0.37891-0.98828-0.83594-1.5938-1.1367-0.074218-0.074219-0.15234-0.15234-0.30469-0.22656-0.15234-0.15234-0.30469-0.22656-0.45703-0.37891-0.53125-0.37891-1.0625-0.75781-1.4414-1.2148-0.60547-0.30469-0.98828-0.75781-1.4414-1.2148-0.15234-0.074219-0.22656-0.22656-0.37891-0.30469-0.45703-0.30469-0.91016-0.60547-1.2891-1.0625-0.30469-0.37891-0.75781-0.60547-1.0625-0.91016-0.15234-0.15234-0.30469-0.22656-0.53125-0.22656-0.37891-0.074219-0.68359-0.30469-0.75781-0.75781-0.074219-0.15234-0.15234-0.30469-0.30469-0.45703-0.30469-0.22656-0.53125-0.53125-0.68359-0.83594-0.074219-0.074219-0.15234-0.22656-0.22656-0.30469-0.37891-0.30469-0.68359-0.68359-0.83594-1.1367-0.074219-0.37891-0.30469-0.75781-0.60547-1.0625-0.15234-0.15234-0.22656-0.30469-0.37891-0.45703-0.22656-0.45703-0.53125-0.83594-0.83594-1.2891-0.15234-0.22656-0.37891-0.53125-0.45703-0.83594 0-0.074218-0.074219-0.22656-0.074219-0.22656-0.30469-0.37891-0.37891-0.83594-0.60547-1.2891-0.30469-0.60547-0.30469-1.2148-0.15234-1.8203 0-0.22656 0.22656-0.37891 0.45703-0.45703h0.15234c0.37891 0.15234 0.68359 0.22656 0.91016 0.60547 0.15234 0.22656 0.45703 0.37891 0.68359 0.60547 0.074219-0.074219 0.15234-0.074219 0.15234-0.15234 0.074219-0.15234 0.074219-0.30469 0.15234-0.45703 0.15234-0.30469 0-0.68359 0.30469-0.91016 0.22656-0.15234 0.37891-0.45703 0.53125-0.68359 0.074218-0.15234 0.22656-0.15234 0.37891-0.22656 0.15234 0 0.22656 0 0.37891 0.074218 0.15234 0.15234 0.30469 0.30469 0.45703 0.53125 0.30469 0.37891 0.68359 0.53125 1.1367 0.60547 0.22656 0 0.53125 0 0.75781 0.074219 0.45703 0.22656 0.83594 0 1.2148-0.30469 0.074219-0.074218 0.22656-0.15234 0.30469-0.22656 0.68359-0.60547 1.3672-1.0625 2.0469-1.668 0.30469-0.22656 0.60547-0.45703 0.91016-0.68359 0.37891-0.22656 0.68359-0.53125 0.98828-0.83594 0.15234-0.15234 0.37891-0.30469 0.60547-0.45703 0.22656-0.15234 0.45703-0.30469 0.60547-0.53125l0.074219-0.074219c0.60547-0.37891 1.0625-0.91016 1.5938-1.4414 0.45703-0.37891 0.83594-0.83594 1.3672-1.1367 0.45703-0.60547 1.1367-0.98828 1.668-1.5156l0.15234-0.15234c0.60547-0.37891 1.0625-0.91016 1.5156-1.4414 0.23047-0.070312 0.38281-0.14453 0.45703-0.14453 0.30469 0 0.60547 0.074219 0.83594 0.30469l0.074219 0.074219c0.15234 0.53125 0.60547 0.75781 0.83594 1.2148 0.074219 0.074219 0.15234 0.22656 0.15234 0.30469 0.22656 0.60547 0.37891 1.1367 0.53125 1.7422 0 0.074218 0 0.22656-0.074218 0.37891-0.074219 0.22656-0.15234 0.45703-0.074219 0.75781v0.37891c0 0.60547-0.15234 1.1367-0.15234 1.7461-0.15234 0.60547-0.45703 1.2148-0.98828 1.5938-0.68359 0.53125-1.2148 1.1367-1.8203 1.8203-0.074219 0.074219-0.15234 0.15234-0.15234 0.22656-0.074219 0.074218 0 0.15234 0.074218 0.15234 0.074219 0.074219 0.22656 0.074219 0.37891 0.074219 0.53125 0 1.0625 0.074219 1.5938 0.074219s1.0625 0.15234 1.5938 0h0.30469c0.45703 0 0.91016 0.074219 1.4414 0.074219 0.45703-0.074219 0.91016-0.074219 1.4414-0.074219 0.60547 0.074219 1.2891-0.074219 1.8984 0.074219h0.45703c0.75781-0.074219 1.4414 0 2.1992 0 0.15234 0 0.22656 0 0.37891 0.074218 0.60547 0.15234 1.2148 0.15234 1.8984 0 0.37891-0.074218 0.75781-0.074218 1.0625 0.15234 0.22656 0.15234 0.37891 0.15234 0.60547 0.074219 0.15234-0.074219 0.37891-0.074219 0.53125 0 0.30469 0.15234 0.60547 0.074219 0.91016 0 0.22656-0.074219 0.45703-0.074219 0.60547 0 0.30469 0.15234 0.60547 0.15234 0.91016 0.074219 0.37891-0.074219 0.68359 0 1.0625 0 1.0625 0 2.0469 0 3.1094-0.074219h0.45703c0.75781 0.074219 1.5156-0.074219 2.2773-0.15234-0.074219-0.15234-0.074219-0.30469-0.15234-0.37891 0-0.074219 0.074219-0.074219 0.074219-0.15234 0.074219 0 0.15234-0.074219 0.15234-0.074219 1.2891 0.074219 2.5039 0 3.793 0.074219 0.22656 0 0.45703 0 0.68359 0.074219 0.15234 0 0.37891 0.074218 0.53125 0.074218h1.8984c0.15234 0 0.30469 0.074219 0.45703 0.15234 0.15234 0.074219 0.30469 0.15234 0.53125 0.22656 0.15234 0.074219 0.22656 0.074219 0.37891 0 0.15234-0.15234 0.30469-0.15234 0.53125-0.15234 0.60547 0.15234 1.2148 0.22656 1.8984 0.15234 0.15234 0 0.22656 0.074219 0.37891 0.074219 0.68359 0.074218 0.91016 0.15234 1.4414-0.074219 0.37891-0.15234 0.75781-0.22656 1.1367-0.15234h0.45703c0.15234 0 0.30469-0.15234 0.37891-0.22656 0.15234-0.15234 0.15234-0.37891 0.30469-0.60547 0.074219-0.15234 0.30469-0.22656 0.37891-0.15234 0.37891 0.074219 0.75781 0.22656 1.1367 0.45703 0.30469 0.15234 0.45703 0.37891 0.45703 0.75781 0.074219 0.75781 0.074219 1.5156 0.30469 2.2773 0 0.15234 0.074218 0.22656 0.15234 0.37891 0.30469 0.45703 0.53125 0.91016 0.91016 1.2891 0.15234 0.15234 0.30469 0.37891 0.45703 0.60547 0.074219 0.22656 0.15234 0.37891-0.15234 0.53125-0.074219 0.074219-0.074219 0.22656 0 0.30469l0.22656 0.22656c-0.007813 0.16406 0.066406 0.31641-0.007813 0.54297-0.074219 0.15234-0.15234 0.37891-0.15234 0.53125 0 0.30469-0.22656 0.53125-0.45703 0.68359-0.22656 0.15234-0.53125 0.22656-0.83594 0.15234h-0.074219c-0.83594-0.30469-1.8203-0.22656-2.7305-0.37891h-0.15234c-0.60547-0.074219-1.2109-0.074219-1.8203 0h-0.37891c-0.15234-0.074219-0.30469 0-0.45703 0-0.45703 0.074219-0.91016 0.074219-1.2891 0-0.15234 0-0.22656-0.074219-0.37891 0-0.68359 0.074219-1.2891-0.074219-1.9727 0h-0.53125c-0.91016-0.15234-1.668-0.074219-2.4258-0.074219h-1.4414c-0.22656 0-0.45703-0.074218-0.68359-0.15234-0.15234-0.074218-0.30469-0.074218-0.45703 0-0.45703 0.15234-0.91016 0.074219-1.2891-0.074218-0.22656-0.074219-0.45703-0.15234-0.68359-0.074219-0.30469 0.074219-0.60547 0-0.91016-0.074219-0.37891 0-0.75781 0-1.1367 0.074219-0.30469 0.074219-0.68359 0.15234-0.98828 0.15234h-3.4922-0.53125-1.2148c-0.53125 0-0.98828 0-1.5156-0.15234-0.45703 0.15234-0.98828 0.074219-1.5156 0.074219-0.30469 0-0.53125-0.074219-0.83594 0h-0.15234c-0.53125-0.074219-1.0625 0-1.5938 0s-1.0625 0.074218-1.5938 0.074218c-0.83594 0-1.668 0.15234-2.5039 0-0.75781 0.074219-1.5938 0-2.3516 0.074219-0.68359 0.074219-1.3672 0.074219-2.0469 0h-0.75781c-0.53125 0-1.1367 0-1.668 0.074219-0.68359 0-1.2891 0.074219-1.9727 0.15234-0.98828 0.074218-1.9727 0.22656-3.0352 0.22656h-0.074219c-0.83594 0.22656-1.7461 0.15234-2.6562 0.15234h-0.15234c-0.53125 0.15234-1.1367 0.074219-1.668 0.074219-0.30469 0-0.53125 0.074219-0.83594 0.22656-0.15234 0.074219-0.15234 0.30469-0.074219 0.37891 0.074219 0.074218 0.074219 0.074218 0.15234 0.15234 0.15234 0.074219 0.22656 0.22656 0.37891 0.30469 0.37891 0.22656 0.75781 0.53125 1.0625 0.91016 0.53125 0.37891 1.0625 0.91016 1.668 1.2148 0.68359 0.30469 1.2891 0.68359 1.8984 1.2148 0.37891 0.37891 0.83594 0.60547 1.2891 0.91016 0.37891 0.30469 0.75781 0.53125 1.1367 0.75781 0.22656 0.15234 0.45703 0.30469 0.60547 0.37891 0.30469 0.22656 0.68359 0.22656 0.83594 0.60547 0 0 0.074218 0.074219 0.074218 0.074219 0.83594 0.37891 1.4414 1.0625 2.1992 1.5938 0.30469 0.22656 0.60547 0.45703 0.98828 0.60547 0.22656 0.074218 0.37891 0.22656 0.53125 0.45703 0.22656 0.37891 0.53125 0.68359 0.91016 0.91016 0.22656 0.15234 0.45703 0.37891 0.60547 0.68359 0.074218 0.22656 0.37891 0.37891 0.45703 0.60547 0 0.22656 0.15234 0.37891 0.30469 0.53125 0.45703 0.45703 0.91016 0.83594 1.2148 1.4414 0.15234 0.22656 0.30469 0.37891 0.45703 0.60547 0.074219 0.074219 0.15234 0.22656 0.15234 0.30469 0 0.30469 0.074219 0.45703 0.22656 0.68359 0.22656 0.37891 0.074218 0.68359-0.074219 0.98828-0.074219 0.15234-0.22656 0.22656-0.30469 0.30469-0.074219 0.074219-0.37891 0.074219-0.45703-0.074219-0.074219-0.15234-0.15234-0.30469-0.15234-0.45703-0.074218-0.15234-0.30469-0.15234-0.37891 0-0.23047 0.46094-0.30469 0.60938-0.45703 0.83984zm33.23-21.32h0.37891c0.22656 0 0.53125 0 0.75781-0.15234 0.003906 0 0.003906-0.078125 0.003906-0.15234 0-0.074218-0.074218-0.074218-0.074218-0.15234l-0.074219-0.074219c-0.37891-0.15234-0.83594-0.22656-1.2148-0.37891-0.078125-0.078125-0.23047-0.078125-0.38281-0.078125-0.22656 0-0.45703 0.074219-0.68359 0.074219-0.30469 0.074218-0.53125 0.074218-0.83594-0.074219-0.30469-0.15234-0.60547-0.22656-0.91016-0.074219-0.14844 0.074219-0.37891 0.074219-0.52734 0.074219-0.074219 0-0.15234 0-0.22656-0.074219-0.15234-0.074219-0.30469-0.15234-0.45703-0.15234-0.22656 0-0.53125 0-0.75781-0.074218-0.75781-0.15234-1.5156-0.074219-2.2773-0.15234h-0.45703c-0.37891 0.074218-0.68359 0.074218-0.98828-0.074219-0.15234-0.074219-0.37891 0-0.53125 0s-0.37891 0.074219-0.53125 0.074219c-0.30469 0.074218-0.68359 0.074218-0.98828 0-0.30469-0.074219-0.68359-0.074219-1.0625-0.074219-0.30469 0-0.53125 0.37891-0.45703 0.68359 0 0.15234 0.074219 0.30469 0.15234 0.45703 0 0.074219 0.074219 0.074219 0.15234 0.074219 0.15234 0 0.22656-0.074219 0.37891-0.074219 0.37891-0.15234 0.83594-0.22656 1.2891-0.15234h0.37891c0.53125-0.15234 1.1367-0.074218 1.668 0 0.68359 0.074219 1.2891 0.22656 1.9727 0.074219h0.53125c0.60547 0.074219 1.2148 0.074219 1.7461 0.15234 0.60547 0.074219 1.2148 0 1.8984 0.15234 0.15234 0 0.30469 0 0.45703-0.074218 0.45703-0.074219 0.91016-0.15234 1.3672-0.074219 0.003906 0.29688 0.15625 0.29688 0.30469 0.29688zm-14.414-1.3672h0.22656c0.074218 0 0.074218-0.074218 0.15234-0.074218-0.074219-0.074219-0.074219-0.074219-0.15234-0.074219h-0.30469c-0.074219 0-0.074219 0.074219-0.15234 0.074219 0.078125 0 0.078125 0 0.23047 0.074218-0.078125 0 0 0 0 0zm1.1367-0.15234h0.074218z" fill="#f4f4f4" fill-rule="evenodd"/>
 </g>
</svg>
