<?xml version="1.0" encoding="UTF-8"?>
<svg width="100pt" height="100pt" version="1.1" viewBox="0 0 100 100" xmlns="http://www.w3.org/2000/svg">
 <defs>
  <clipPath id="dv">
   <path d="m8 30h53v32h-53z"/>
  </clipPath>
  <clipPath id="cj">
   <path d="m5.4688 50 44.531-44.531 44.531 44.531-44.531 44.531z"/>
  </clipPath>
  <clipPath id="by">
   <path d="m77 48h9v2h-9z"/>
  </clipPath>
  <clipPath id="bn">
   <path d="m5.4688 50 44.531-44.531 44.531 44.531-44.531 44.531z"/>
  </clipPath>
  <clipPath id="bc">
   <path d="m77 50h9v2h-9z"/>
  </clipPath>
  <clipPath id="ar">
   <path d="m5.4688 50 44.531-44.531 44.531 44.531-44.531 44.531z"/>
  </clipPath>
  <clipPath id="ag">
   <path d="m63 48h9v2h-9z"/>
  </clipPath>
  <clipPath id="v">
   <path d="m5.4688 50 44.531-44.531 44.531 44.531-44.531 44.531z"/>
  </clipPath>
  <clipPath id="k">
   <path d="m74 51h9v2h-9z"/>
  </clipPath>
  <clipPath id="du">
   <path d="m5.4688 50 44.531-44.531 44.531 44.531-44.531 44.531z"/>
  </clipPath>
  <clipPath id="dj">
   <path d="m64 52h5v1h-5z"/>
  </clipPath>
  <clipPath id="cy">
   <path d="m5.4688 50 44.531-44.531 44.531 44.531-44.531 44.531z"/>
  </clipPath>
  <clipPath id="cq">
   <path d="m52 47h3v1h-3z"/>
  </clipPath>
  <clipPath id="cp">
   <path d="m5.4688 50 44.531-44.531 44.531 44.531-44.531 44.531z"/>
  </clipPath>
  <clipPath id="co">
   <path d="m58 49h3v2h-3z"/>
  </clipPath>
  <clipPath id="cn">
   <path d="m5.4688 50 44.531-44.531 44.531 44.531-44.531 44.531z"/>
  </clipPath>
  <clipPath id="cm">
   <path d="m48 46h3v2h-3z"/>
  </clipPath>
  <clipPath id="cl">
   <path d="m5.4688 50 44.531-44.531 44.531 44.531-44.531 44.531z"/>
  </clipPath>
  <clipPath id="ck">
   <path d="m60 48h3v2h-3z"/>
  </clipPath>
  <clipPath id="ci">
   <path d="m5.4688 50 44.531-44.531 44.531 44.531-44.531 44.531z"/>
  </clipPath>
  <clipPath id="ch">
   <path d="m50 50h2v2h-2z"/>
  </clipPath>
  <clipPath id="cg">
   <path d="m5.4688 50 44.531-44.531 44.531 44.531-44.531 44.531z"/>
  </clipPath>
  <clipPath id="cf">
   <path d="m60 51h1v1h-1z"/>
  </clipPath>
  <clipPath id="ce">
   <path d="m5.4688 50 44.531-44.531 44.531 44.531-44.531 44.531z"/>
  </clipPath>
  <clipPath id="cd">
   <path d="m54 47h3v2h-3z"/>
  </clipPath>
  <clipPath id="cc">
   <path d="m5.4688 50 44.531-44.531 44.531 44.531-44.531 44.531z"/>
  </clipPath>
  <clipPath id="cb">
   <path d="m67 49h1v1h-1z"/>
  </clipPath>
  <clipPath id="ca">
   <path d="m5.4688 50 44.531-44.531 44.531 44.531-44.531 44.531z"/>
  </clipPath>
  <clipPath id="bz">
   <path d="m62 49h2v2h-2z"/>
  </clipPath>
  <clipPath id="bx">
   <path d="m5.4688 50 44.531-44.531 44.531 44.531-44.531 44.531z"/>
  </clipPath>
  <clipPath id="bw">
   <path d="m66 48h2v1h-2z"/>
  </clipPath>
  <clipPath id="bv">
   <path d="m5.4688 50 44.531-44.531 44.531 44.531-44.531 44.531z"/>
  </clipPath>
  <clipPath id="bu">
   <path d="m68 48h1v1h-1z"/>
  </clipPath>
  <clipPath id="bt">
   <path d="m5.4688 50 44.531-44.531 44.531 44.531-44.531 44.531z"/>
  </clipPath>
  <clipPath id="bs">
   <path d="m76 49h2v1h-2z"/>
  </clipPath>
  <clipPath id="br">
   <path d="m5.4688 50 44.531-44.531 44.531 44.531-44.531 44.531z"/>
  </clipPath>
  <clipPath id="bq">
   <path d="m62 51h2v1h-2z"/>
  </clipPath>
  <clipPath id="bp">
   <path d="m5.4688 50 44.531-44.531 44.531 44.531-44.531 44.531z"/>
  </clipPath>
  <clipPath id="bo">
   <path d="m73 48h2v1h-2z"/>
  </clipPath>
  <clipPath id="bm">
   <path d="m5.4688 50 44.531-44.531 44.531 44.531-44.531 44.531z"/>
  </clipPath>
  <clipPath id="bl">
   <path d="m65 51h1v1h-1z"/>
  </clipPath>
  <clipPath id="bk">
   <path d="m5.4688 50 44.531-44.531 44.531 44.531-44.531 44.531z"/>
  </clipPath>
  <clipPath id="bj">
   <path d="m60 50h1v1h-1z"/>
  </clipPath>
  <clipPath id="bi">
   <path d="m5.4688 50 44.531-44.531 44.531 44.531-44.531 44.531z"/>
  </clipPath>
  <clipPath id="bh">
   <path d="m69 52h1v1h-1z"/>
  </clipPath>
  <clipPath id="bg">
   <path d="m5.4688 50 44.531-44.531 44.531 44.531-44.531 44.531z"/>
  </clipPath>
  <clipPath id="bf">
   <path d="m69 51h2v1h-2z"/>
  </clipPath>
  <clipPath id="be">
   <path d="m5.4688 50 44.531-44.531 44.531 44.531-44.531 44.531z"/>
  </clipPath>
  <clipPath id="bd">
   <path d="m63 52h1v1h-1z"/>
  </clipPath>
  <clipPath id="bb">
   <path d="m5.4688 50 44.531-44.531 44.531 44.531-44.531 44.531z"/>
  </clipPath>
  <clipPath id="ba">
   <path d="m92 48h2v1h-2z"/>
  </clipPath>
  <clipPath id="az">
   <path d="m5.4688 50 44.531-44.531 44.531 44.531-44.531 44.531z"/>
  </clipPath>
  <clipPath id="ay">
   <path d="m69 49h1v1h-1z"/>
  </clipPath>
  <clipPath id="ax">
   <path d="m5.4688 50 44.531-44.531 44.531 44.531-44.531 44.531z"/>
  </clipPath>
  <clipPath id="aw">
   <path d="m50 47h2v1h-2z"/>
  </clipPath>
  <clipPath id="av">
   <path d="m5.4688 50 44.531-44.531 44.531 44.531-44.531 44.531z"/>
  </clipPath>
  <clipPath id="au">
   <path d="m64 49h1v2h-1z"/>
  </clipPath>
  <clipPath id="at">
   <path d="m5.4688 50 44.531-44.531 44.531 44.531-44.531 44.531z"/>
  </clipPath>
  <clipPath id="as">
   <path d="m72 48h1v1h-1z"/>
  </clipPath>
  <clipPath id="aq">
   <path d="m5.4688 50 44.531-44.531 44.531 44.531-44.531 44.531z"/>
  </clipPath>
  <clipPath id="ap">
   <path d="m76 48h1v2h-1z"/>
  </clipPath>
  <clipPath id="ao">
   <path d="m5.4688 50 44.531-44.531 44.531 44.531-44.531 44.531z"/>
  </clipPath>
  <clipPath id="an">
   <path d="m62 49h1v1h-1z"/>
  </clipPath>
  <clipPath id="am">
   <path d="m5.4688 50 44.531-44.531 44.531 44.531-44.531 44.531z"/>
  </clipPath>
  <clipPath id="al">
   <path d="m53 50h2v2h-2z"/>
  </clipPath>
  <clipPath id="ak">
   <path d="m5.4688 50 44.531-44.531 44.531 44.531-44.531 44.531z"/>
  </clipPath>
  <clipPath id="aj">
   <path d="m65 49h2v2h-2z"/>
  </clipPath>
  <clipPath id="ai">
   <path d="m5.4688 50 44.531-44.531 44.531 44.531-44.531 44.531z"/>
  </clipPath>
  <clipPath id="ah">
   <path d="m61 51h1v1h-1z"/>
  </clipPath>
  <clipPath id="af">
   <path d="m5.4688 50 44.531-44.531 44.531 44.531-44.531 44.531z"/>
  </clipPath>
  <clipPath id="ae">
   <path d="m57 51h1v1h-1z"/>
  </clipPath>
  <clipPath id="ad">
   <path d="m5.4688 50 44.531-44.531 44.531 44.531-44.531 44.531z"/>
  </clipPath>
  <clipPath id="ac">
   <path d="m56 51h1v1h-1z"/>
  </clipPath>
  <clipPath id="ab">
   <path d="m5.4688 50 44.531-44.531 44.531 44.531-44.531 44.531z"/>
  </clipPath>
  <clipPath id="aa">
   <path d="m84 48h2v1h-2z"/>
  </clipPath>
  <clipPath id="z">
   <path d="m5.4688 50 44.531-44.531 44.531 44.531-44.531 44.531z"/>
  </clipPath>
  <clipPath id="y">
   <path d="m68 52h2v1h-2z"/>
  </clipPath>
  <clipPath id="x">
   <path d="m5.4688 50 44.531-44.531 44.531 44.531-44.531 44.531z"/>
  </clipPath>
  <clipPath id="w">
   <path d="m67 51h1v1h-1z"/>
  </clipPath>
  <clipPath id="u">
   <path d="m5.4688 50 44.531-44.531 44.531 44.531-44.531 44.531z"/>
  </clipPath>
  <clipPath id="t">
   <path d="m69 49h1v1h-1z"/>
  </clipPath>
  <clipPath id="s">
   <path d="m5.4688 50 44.531-44.531 44.531 44.531-44.531 44.531z"/>
  </clipPath>
  <clipPath id="r">
   <path d="m72 51h1v1h-1z"/>
  </clipPath>
  <clipPath id="q">
   <path d="m5.4688 50 44.531-44.531 44.531 44.531-44.531 44.531z"/>
  </clipPath>
  <clipPath id="p">
   <path d="m43 46h2v1h-2z"/>
  </clipPath>
  <clipPath id="o">
   <path d="m5.4688 50 44.531-44.531 44.531 44.531-44.531 44.531z"/>
  </clipPath>
  <clipPath id="n">
   <path d="m73 52h1v1h-1z"/>
  </clipPath>
  <clipPath id="m">
   <path d="m5.4688 50 44.531-44.531 44.531 44.531-44.531 44.531z"/>
  </clipPath>
  <clipPath id="l">
   <path d="m46 46h1v1h-1z"/>
  </clipPath>
  <clipPath id="j">
   <path d="m5.4688 50 44.531-44.531 44.531 44.531-44.531 44.531z"/>
  </clipPath>
  <clipPath id="i">
   <path d="m74 50h2v2h-2z"/>
  </clipPath>
  <clipPath id="h">
   <path d="m5.4688 50 44.531-44.531 44.531 44.531-44.531 44.531z"/>
  </clipPath>
  <clipPath id="g">
   <path d="m64 52h1v1h-1z"/>
  </clipPath>
  <clipPath id="f">
   <path d="m5.4688 50 44.531-44.531 44.531 44.531-44.531 44.531z"/>
  </clipPath>
  <clipPath id="e">
   <path d="m86 49h1v1h-1z"/>
  </clipPath>
  <clipPath id="d">
   <path d="m5.4688 50 44.531-44.531 44.531 44.531-44.531 44.531z"/>
  </clipPath>
  <clipPath id="c">
   <path d="m86 50h1v1h-1z"/>
  </clipPath>
  <clipPath id="b">
   <path d="m5.4688 50 44.531-44.531 44.531 44.531-44.531 44.531z"/>
  </clipPath>
  <clipPath id="a">
   <path d="m47 46h1v1h-1z"/>
  </clipPath>
  <clipPath id="dt">
   <path d="m5.4688 50 44.531-44.531 44.531 44.531-44.531 44.531z"/>
  </clipPath>
  <clipPath id="ds">
   <path d="m87 49h1v1h-1z"/>
  </clipPath>
  <clipPath id="dr">
   <path d="m5.4688 50 44.531-44.531 44.531 44.531-44.531 44.531z"/>
  </clipPath>
  <clipPath id="dq">
   <path d="m61 49h1v1h-1z"/>
  </clipPath>
  <clipPath id="dp">
   <path d="m5.4688 50 44.531-44.531 44.531 44.531-44.531 44.531z"/>
  </clipPath>
  <clipPath id="do">
   <path d="m85 48h1v1h-1z"/>
  </clipPath>
  <clipPath id="dn">
   <path d="m5.4688 50 44.531-44.531 44.531 44.531-44.531 44.531z"/>
  </clipPath>
  <clipPath id="dm">
   <path d="m64 51h1v1h-1z"/>
  </clipPath>
  <clipPath id="dl">
   <path d="m5.4688 50 44.531-44.531 44.531 44.531-44.531 44.531z"/>
  </clipPath>
  <clipPath id="dk">
   <path d="m73 49h1v1h-1z"/>
  </clipPath>
  <clipPath id="di">
   <path d="m5.4688 50 44.531-44.531 44.531 44.531-44.531 44.531z"/>
  </clipPath>
  <clipPath id="dh">
   <path d="m75 50h1v1h-1z"/>
  </clipPath>
  <clipPath id="dg">
   <path d="m5.4688 50 44.531-44.531 44.531 44.531-44.531 44.531z"/>
  </clipPath>
  <clipPath id="df">
   <path d="m67 49h2v1h-2z"/>
  </clipPath>
  <clipPath id="de">
   <path d="m5.4688 50 44.531-44.531 44.531 44.531-44.531 44.531z"/>
  </clipPath>
  <clipPath id="dd">
   <path d="m77 48h1v2h-1z"/>
  </clipPath>
  <clipPath id="dc">
   <path d="m5.4688 50 44.531-44.531 44.531 44.531-44.531 44.531z"/>
  </clipPath>
  <clipPath id="db">
   <path d="m93 48h1v1h-1z"/>
  </clipPath>
  <clipPath id="da">
   <path d="m5.4688 50 44.531-44.531 44.531 44.531-44.531 44.531z"/>
  </clipPath>
  <clipPath id="cz">
   <path d="m87 49h1v1h-1z"/>
  </clipPath>
  <clipPath id="cx">
   <path d="m5.4688 50 44.531-44.531 44.531 44.531-44.531 44.531z"/>
  </clipPath>
  <clipPath id="cw">
   <path d="m85 49h1v1h-1z"/>
  </clipPath>
  <clipPath id="cv">
   <path d="m5.4688 50 44.531-44.531 44.531 44.531-44.531 44.531z"/>
  </clipPath>
  <clipPath id="cu">
   <path d="m54 50h1v2h-1z"/>
  </clipPath>
  <clipPath id="ct">
   <path d="m5.4688 50 44.531-44.531 44.531 44.531-44.531 44.531z"/>
  </clipPath>
  <clipPath id="cs">
   <path d="m76 48h1v2h-1z"/>
  </clipPath>
  <clipPath id="cr">
   <path d="m5.4688 50 44.531-44.531 44.531 44.531-44.531 44.531z"/>
  </clipPath>
 </defs>
 <rect width="100" height="100"/>
 <g clip-path="url(#dv)">
  <g clip-path="url(#cj)">
   <path d="m57.547 51.707c-0.050781-0.24609-0.050781-0.54297 0.14844-0.74219 0.050782-0.050782 0-0.19922-0.097656-0.19922-0.24609-0.14844-0.49609-0.19922-0.83984-0.050781-0.44531 0.24609-0.94141 0.44531-1.3867 0.79297 0-0.097656-0.050782-0.14844-0.050782-0.24609 0 0.097656 0.050782 0.14844 0.050782 0.24609-0.050782 0.050782-0.097656 0-0.14844 0.050782-0.24609-0.050782-0.54297-0.050782-0.79297 0-0.14844 0.050781-0.24609-0.14844-0.19922-0.29688 0.050781-0.050781 0.050781-0.050781 0.097656-0.097657 0.050781-0.050781 0.14844-0.050781 0.19922-0.097656 0.14844-0.050781 0.097656-0.19922 0.050781-0.24609-0.19922-0.097656-0.44531-0.24609-0.69141-0.19922-0.097657 0-0.14844 0.050781-0.19922 0-0.44531 0.050781-0.89062 0.097656-1.2852-0.097656-0.74219-0.050782-1.5352-0.14844-2.3242-0.050782-0.097656 0-0.14844 0.050782-0.29688 0.097656-0.050781 0.050782-0.097656 0.097657-0.050781 0.14844 0.097656 0.097656 0.19922 0.19922 0.34766 0.24609 0.19922 0 0.39453 0 0.54297 0.050781-0.097656 0.097656-0.14844 0.24609-0.29688 0.19922-0.39453 0-0.69141 0.097656-1.0898 0-0.050781-0.050782-0.14844-0.050782-0.19922 0-0.19922 0-0.34766 0.050781-0.49609 0.097656-0.14844 0.050781-0.29687 0-0.49609 0l0.097656 0.097656c0.14844 0.050782 0.34766 0.14844 0.49609 0.19922 0.44531 0.050781 0.89062 0.19922 1.2852 0.097656 0.49609 0.097657 1.0391 0.050781 1.6328 0.050781 0.14844 0.050782 0.29687 0 0.39453 0 0.44531 0.050782 0.89062 0.19922 1.3359 0.14844 0.44531 0.050781 0.89062 0.097656 1.3867 0.097656 0.050781 0.050782 0.097656 0 0.14844 0.050782 0.29688 0 0.64453-0.14844 0.89063 0 0.34766-0.050782 0.59375 0 0.94141-0.050782 0.19922-0.097656 0.39453 0 0.54297 0.050782 0.29688 0.097656 0.59375 0.19922 0.94141 0.14844 0.050781-0.050781 0.097656 0 0.14844 0.050781 0.34766 0.24609 0.69141 0.19922 1.0898 0.097656 0.14844-0.050781 0.34766 0.050782 0.49609 0.097657 0.050781 0.050781 0.097656 0.097656 0.097656 0.19922 0.050781 0.050781-0.097656 0.19922-0.19922 0.19922-0.097656 0-0.14844 0.050782-0.24609 0.050782h-0.29688c-0.64453-0.050782-1.3359-0.050782-1.9805 0-0.19922 0-0.29688 0-0.49609-0.097657-0.34766-0.14844-0.64453-0.24609-1.0391-0.34766-0.097657 0-0.14844-0.050781-0.24609-0.050781-0.19922 0-0.44531-0.050782-0.64453-0.050782-0.49609 0-1.0391 0.050782-1.582-0.097656-0.050781-0.050781-0.097656 0-0.14844-0.050781-0.59375 0.097656-1.1367-0.050781-1.7305-0.050781s-1.1367-0.050782-1.7305-0.14844c-0.097656 0-0.14844-0.050781-0.19922 0-0.59375 0.097656-1.1367-0.050781-1.7305-0.050781-0.64453-0.050781-1.2383-0.050781-1.8789-0.097656-0.19922 0-0.39453 0-0.54297-0.14844-0.14844-0.14844-0.34766-0.14844-0.44531-0.050781-0.34766 0.14844-0.64453 0.050781-0.89062 0.097656-0.54297-0.14844-1.0391-0.050781-1.582-0.097656-0.54297-0.050781-1.0391-0.050781-1.5352-0.14844-0.34766-0.050781-0.64453-0.050781-1.0391-0.050781-0.83984-0.050781-1.6328-0.14844-2.4727-0.097656-0.19922 0-0.34766-0.050781-0.49609 0-0.44531-0.050781-0.98828-0.097656-1.4336-0.050781h-0.29687c-1.0898-0.097656-2.1758-0.097656-3.2656-0.097656-0.44531-0.050782-0.89062 0-1.3359 0.050781-0.34766 0.050781-0.69141-0.097657-0.98828 0-0.097656 0-0.14844 0.050781-0.24609 0.050781l-0.050781 0.050781c-0.050781 0.050781 0 0.097657 0.050781 0.14844 0.097656 0 0.19922 0.097656 0.29688 0.097656 0.34766 0.050781 0.69141 0.097656 0.98828 0.29688 0.39453 0.19922 0.79297 0.29688 1.1875 0.39453 0.39453 0.097657 0.79297 0.19922 1.1367 0.34766 0.29688 0.097656 0.59375 0.19922 0.83984 0.44531 0.64453 0.34766 1.1875 0.79297 1.832 1.2383 0.19922 0.097657 0.29688 0.19922 0.49609 0.29688 0.14844 0.050782 0.29688 0.19922 0.44531 0.24609 0.24609 0.24609 0.49609 0.39453 0.79297 0.49609 0.24609 0.050781 0.44531 0.24609 0.54297 0.44531 0.14844 0.24609 0.24609 0.44531 0.44531 0.64453 0.19922 0.19922 0.097656 0.39453 0.19922 0.59375 0.14844 0.14844 0.29688 0.29687 0.29688 0.49609 0.050781 0.34766 0.097656 0.69141 0.097656 1.0898-0.050781 0.14844 0 0.29688 0 0.39453s0.050782 0.24609-0.050781 0.34766c-0.097656 0.29688-0.14844 0.64453-0.14844 0.94141 0 0.19922-0.097657 0.39453-0.29688 0.59375-0.19922 0.19922-0.49609 0.29688-0.74219 0.14844-0.050781-0.050781-0.19922-0.097656-0.24609-0.14844-0.14844-0.24609-0.39453-0.39453-0.54297-0.54297-0.097656-0.097656-0.19922-0.19922-0.24609-0.24609-0.14844-0.24609-0.39453-0.39453-0.64453-0.54297-0.29688-0.19922-0.69141-0.39453-1.0391-0.54297-0.050781-0.050781-0.097656-0.097657-0.19922-0.097657-0.34766-0.050781-0.64453-0.14844-0.89062-0.39453-0.050781-0.050781-0.19922-0.097656-0.24609-0.14844-0.14844-0.050782-0.29688-0.097656-0.49609-0.19922-0.39453-0.19922-0.74219-0.34766-1.1367-0.44531-0.097656 0-0.24609-0.050781-0.34766-0.14844-0.24609-0.14844-0.44531-0.24609-0.69141-0.39453-0.54297-0.24609-1.1367-0.44531-1.7305-0.54297-0.34766-0.050781-0.69141-0.19922-1.0391-0.34766-0.34766-0.14844-0.74219-0.24609-1.0391-0.54297-0.050781-0.050781-0.097657-0.097656-0.19922-0.097656-0.39453 0-0.74219-0.24609-1.0898-0.29688s-0.69141-0.19922-1.0898-0.19922c-0.83984-0.34766-1.7812-0.39453-2.5742-0.79297-0.49609-0.097656-0.98828-0.19922-1.4844-0.39453-0.54297-0.14844-1.0898-0.29688-1.6328-0.44531-0.39453-0.097657-0.89062-0.19922-1.2852-0.19922-0.097656 0-0.24609-0.050781-0.34766-0.050781-0.003906-0.3125-0.19922-0.3125-0.39844-0.41016-0.24609-0.050781-0.49609-0.097656-0.69141 0-0.14844 0.050781-0.29688 0.097657-0.44531 0.050781-0.59375-0.10156-1.2383-0.14844-1.7812-0.29687-0.25-0.050782-0.44531-0.050782-0.69531-0.10156-0.097656 0-0.29688 0-0.44531 0.050781-0.29687 0.097656-0.54297 0.14844-0.89062 0.29688-0.34375 0.14844-0.64063 0.24609-0.98828 0.29688-0.49609 0.19922-0.98828 0.29688-1.3867 0.59375-0.19531 0-0.34375-0.050781-0.44531-0.050781-0.19922-0.19922-0.34766-0.44531-0.34766-0.74219-0.050781-0.14844-0.050781-0.34766 0-0.49609 0.050781-0.24609 0.003906-0.58984 0.25-0.83984 0.097656-0.097656 0.050781-0.24609 0.097656-0.29688 0.14844-0.14844 0.29688-0.19922 0.44531-0.34766 0.24609-0.14844 0.44531-0.24609 0.54297-0.54297 0.050782-0.14844 0.14844-0.24609 0.29688-0.29688 0.24609-0.14844 0.44531-0.34766 0.54297-0.64453s0.34766-0.54297 0.54297-0.74219c0.097656-0.097656 0.19922-0.19922 0.29688-0.29688 0.19922-0.29688 0.39453-0.49609 0.74219-0.54297 0.097657 0 0.19922-0.097656 0.19922-0.19922 0-0.19922 0.097656-0.29688 0.34766-0.34766 0.24609-0.050782 0.44531-0.050782 0.69141-0.097657 0.19922 0 0.34766-0.050781 0.44531-0.14844 0.5-0.097656 0.84375-0.34375 1.1914-0.58984 0.19922-0.097656 0.34766-0.34766 0.49609-0.49609 0.14844-0.14844 0.19922-0.29688 0.39453-0.39453 0.24609-0.14844 0.49609-0.39453 0.69141-0.59375 0.14844-0.14844 0.29688-0.29688 0.34766-0.44531 0.14844-0.25 0.19922-0.39844 0.39453-0.49609 0.29688-0.29688 0.54297-0.54297 0.69141-0.89062 0.14844-0.24609 0.34766-0.44531 0.49609-0.59375 0.29688-0.29688 0.59375-0.59375 0.79297-0.98828 0.097656-0.19922 0.19922-0.29687 0.34766-0.44531 0.14844-0.34766 0.34375-0.54688 0.44531-0.84375 0.097656-0.19922 0.24609-0.34766 0.39453-0.49609 0.29688-0.39453 0.59375-0.69141 0.89062-1.0898 0.19922-0.19922 0.39453-0.49609 0.54297-0.74219 0.24609-0.34766 0.54297-0.64453 0.69141-0.98828 0.050781-0.050782 0.14844-0.14844 0.14844-0.24609 0.19922-0.29688 0.49609-0.59375 0.64453-0.94141 0.050781-0.050782 0.050781-0.050782 0.097656-0.097656 0.44531-0.44531 0.74219-0.94141 0.98828-1.4844 0.19922-0.39453 0.44531-0.64453 0.59375-1.0898 0.050781-0.14844 0.14844-0.24609 0.24609-0.34766 0.29688-0.29687 0.49609-0.69141 0.69141-1.0898 0.097656-0.29688 0.39453-0.49609 0.54297-0.74219l0.050781-0.050781c0.19922-0.097656 0.39453-0.19922 0.49609-0.39453 0.14844-0.14844 0.14844-0.34766 0.29688-0.49609 0.050781-0.050781 0.19922-0.097656 0.24609-0.050781 0.050781 0.050781 0.14844 0.14844 0.14844 0.24609 0.050781 0.24609 0.097656 0.59375 0.097656 0.89062 0.050781 0.14844 0.14844 0.24609 0.34766 0.24609 0.14844-0.050781 0.29687 0 0.44531-0.050781 0.29688-0.097656 0.54297-0.050781 0.83984 0.050781 0.050781 0.050782 0.14844 0.050782 0.19922 0.097656 0.050782 0.050782 0.097657 0.097657 0.097657 0.19922 0 0.29688 0 0.59375-0.050781 0.83984-0.050782 0.44531-0.19922 0.89062-0.14844 1.3359 0 0.097657-0.050781 0.14844 0 0.19922-0.14844 0.44531-0.14844 0.83984-0.19922 1.2852 0 0.29687 0 0.59375-0.14844 0.83984 0.050781 0.34766-0.14844 0.64453-0.29688 0.89062-0.13672 0.16016-0.1875 0.41016-0.23828 0.55859-0.097657 0.29688-0.14844 0.54297-0.29688 0.79297-0.24609 0.44531-0.44531 0.94141-0.69141 1.3867-0.34766 0.64453-0.74219 1.2383-1.2383 1.832-0.24609 0.24609-0.44531 0.54297-0.69141 0.69141-0.097657 0.097656-0.19922 0.19922-0.24609 0.34766-0.050781 0.14453-0.14844 0.24219-0.25 0.33984-0.14844 0.14844-0.39453 0.29688-0.54297 0.44531-0.14844 0.14844-0.29688 0.29687-0.44531 0.44531-0.29688 0.19922-0.49609 0.49609-0.69141 0.69141-0.097657 0.097656-0.14844 0.24609-0.24609 0.34766-0.050782 0.050782 0.050781 0.14844 0.097656 0.19922 0.097656 0 0.14844 0.050781 0.19922 0 0.19922 0 0.34766-0.050781 0.49609 0 0.49609 0 1.0391 0.050781 1.6328 0.050781 0.54297 0.050782 1.0898 0 1.6836 0s1.1875 0 1.7305 0.050782c0.49609 0 0.94141 0.050781 1.4336 0.14844 0.59375 0.097657 1.2383 0.050781 1.8789 0.19922 0 0 0.050781 0.050781 0.097656 0 0.39453 0 0.79297-0.097656 1.1367-0.050781 0.39453 0.097656 0.79297 0.097656 1.1875 0.097656 0.54297 0.050781 1.0898 0.097656 1.6328 0.14844 0.44531 0.050782 0.83984 0.050782 1.2852 0.19922h0.29688c0.64453-0.050781 1.2852 0.097657 1.9297 0.14844 0.24609 0.050781 0.49609 0 0.74219 0.050781 0.64453 0.050781 1.2852 0.097656 1.9805 0.19922 0.19922 0 0.34766 0.050781 0.49609 0.19922 0.19922 0.19922 0.44531 0.14844 0.69141 0.19922 0.14844 0.050782 0.24609-0.050781 0.34766-0.050781 0.097656 0 0.097656 0 0.050782-0.14844-0.097657-0.097657-0.050782-0.14844 0.050781-0.14844 0.14844-0.050781 0.29688 0 0.44531 0.050781 0.39453 0.097657 0.79297 0.097657 1.1367 0.050781 0 0.097657 0 0.19922 0.050781 0.24609 0.097657 0.097656 0.24609 0.050782 0.39453 0.097656 0.14844 0.050782 0.19922 0.097657 0.34766 0.14844 0.34766 0.050781 0.64453 0.24609 0.89062 0.49609 0.050781 0.050781 0.19922 0.097656 0.29688 0.097656 0.097656 0 0.19922 0 0.29688-0.097656 0.050781-0.050782 0.097656-0.19922 0.14844-0.24609 0.097657-0.097656 0.14844-0.14844 0.34766-0.14844h0.29687c0.29688 0 0.54297 0.050782 0.89063 0.097657 0 0 0.050781 0.050781 0.050781 0.14844 0 0-0.050781 0.050782-0.050781 0.050782-0.39453 0.097656-0.69141 0.19922-1.0898 0-0.050782-0.050782-0.097656 0-0.097656 0-0.050782 0.050781-0.050782 0.050781-0.097657 0.097656-0.050781 0.050781 0 0.097656 0 0.097656 0.097657 0.097656 0.19922 0.19922 0.29688 0.19922 0.39453 0.19922 0.74219 0.34766 1.1367 0.44531 0.39453 0.097657 0.79297 0.19922 1.1875 0.097657 0.44531 0.050781 0.79297 0 1.2383 0.050781 0.34766 0.050781 0.69141 0.097656 1.0898 0.097656 0.49609 0 0.94141 0.050781 1.3867 0h0.29688c0.19922 0.097656 0.39453 0.097656 0.64453 0.050781 0.14844-0.050781 0.29688 0 0.44531 0.050782 0.39453 0 0.83984 0.050781 1.2383 0.050781 0.19922 0 0.34766 0.050781 0.54297 0.050781 0.097656-0.097656 0.19922-0.19922 0.34766-0.14844 0.29688 0.097657 0.59375 0.097657 0.83984 0.24609 0.19922 0.097656 0.39453 0.097656 0.64453-0.050781 0.050781-0.050781 0.097656 0 0.097656 0 0.097656 0.097656 0.19922 0.097656 0.29688 0.19922v0.097656c-0.097656 0.097656-0.24609 0.14844-0.34766 0.14844-0.24609-0.050782-0.49609 0-0.69141 0.097656h-0.29688c-0.29687-0.097656-0.59375-0.097656-0.83984-0.050782-0.19922 0-0.39453 0-0.64453-0.050781-0.19922-0.097656-0.49609-0.097656-0.69141 0-0.29688 0.097657-0.54297 0.14844-0.83984 0.050781-0.14844-0.050781-0.29688 0-0.39453 0h-0.29688c-0.49609-0.19922-0.98828-0.097656-1.4844-0.19922-0.29688-0.097656-0.54297-0.050782-0.83984-0.050782-0.49609 0-0.94141-0.050781-1.4336-0.050781-0.29688 0-0.59375-0.097656-0.89062-0.097656s-0.59375 0-0.83984 0.050781c-0.097656 0-0.24609-0.050781-0.34766-0.050781-0.14844-0.050781-0.24609-0.050781-0.44531-0.050781-0.14844 0.050781-0.29688 0-0.39453 0-0.44531-0.050782-0.83984-0.050782-1.2383 0.050781l-0.050781 0.050781c-0.050782 0.050782 0 0.097656 0.097656 0.097656 0.14844 0.050782 0.29688 0.097657 0.39453 0.097657 0.14844 0.050781 0.29688 0.097656 0.44531 0.050781 0.44531-0.050781 0.94141 0.050781 1.3867 0.097656 0.34766 0.050782 0.69141 0.097656 1.0898 0.097656 0.59375 0.097657 1.2383 0.050782 1.8789 0.097657 0.59375 0.097656 1.1875 0.097656 1.832 0.050781 0.39453 0 0.83984-0.050781 1.2852 0.097656 0.14844 0.050782 0.29688 0.097656 0.44531 0.050782 0.54297-0.050782 0.98828 0.097656 1.5352 0.050781 0.14844-0.050781 0.34766 0.050781 0.49609 0.097656 0 0.097656 0 0.097656-0.097656 0.097656 0 0-0.097656 0-0.14844 0.050781-0.050781 0.050782-0.097656 0.19922-0.050781 0.24609 0 0.097656 0.097657 0.097656 0.14844 0.14844 0.14844 0.050781 0.34766 0.050781 0.49609 0.097656l0.050782 0.050781s-0.050782 0.050781 0 0.097657l-0.050782 0.050781c-0.097656 0.097656-0.39453 0.097656-0.29687 0.29688 0.097656 0.19922 0.29687 0.097656 0.44531 0.14844 0.19922 0 0.44531 0.050781 0.64453 0.050781 0.097657 0 0.14844 0.050782 0.24609 0.050782 0.050781 0.050781 0.14844 0.14844 0.14844 0.24609 0 0.097656-0.14844 0.24609-0.24609 0.24609-0.29688 0-0.64453-0.050781-0.94141-0.14844-1.0547-0.14844-1.3516-0.050782-1.6484 0.14844zm-1.4375-1.6328c-0.59375-0.097657-1.1875-0.19922-1.7812-0.19922-0.097656 0-0.19922 0-0.24609-0.050781-0.39453-0.19922-0.79297-0.097657-1.1875 0l-0.097656 0.097656 0.050781 0.050781c0.097656 0 0.19922 0.097656 0.34766 0.050782 0.64453-0.050782 1.3359 0.24609 1.9805 0.19922 0.39453 0.097656 0.83984 0.050782 1.2852 0l0.050781-0.050781c-0.050781-0.050781 0-0.097656-0.097657-0.097656-0.054687 0.050781-0.20312 0-0.30469 0zm-4.3047-0.14844c0 0.097657 0.097656 0.097657 0.14844 0.050781l0.050781-0.050781c-0.050781-0.050781-0.050781-0.050781-0.19922 0 0.050781-0.050781 0.050781-0.050781 0 0zm-4.5508-0.097656s0.050782 0.046875 0 0c0.097656 0 0.097656-0.097656 0.050782-0.14844-0.050782-0.050782-0.097657 0-0.097657 0-0.003906 0.097656-0.003906 0.097656 0.046875 0.14844zm2.5742 0v0l-0.050781-0.050781c-0.097656 0-0.050782 0.050781 0.050781 0.050781z" fill="#f4f4f4" fill-rule="evenodd"/>
  </g>
 </g>
 <g clip-path="url(#by)">
  <g clip-path="url(#bn)">
   <path d="m84.859 48.641c0.050781 0.050781 0.050781 0.14844 0.097656 0.19922 0.19922 0.097656 0.14844 0.24609 0.097657 0.39453-0.097657 0-0.24609 0.050781-0.34766 0.050781-0.29688 0.097656-0.64453 0.14844-0.98828 0h-0.29688c-0.29688 0.19922-0.59375 0.19922-0.94141 0.050782-0.097657 0.097656-0.24609 0.14844-0.39453 0.19922-0.24609 0.14844-0.49609 0.19922-0.74219 0.14844-0.64453-0.050782-1.2852 0-1.8789 0.097656h-0.29688c-0.39453-0.097656-0.69141 0-1.0898 0-0.29688 0-0.64453 0.050781-0.94141-0.14844 0.097656-0.097656 0.19922-0.19922 0.34766-0.24609 0.34766-0.050781 0.69141-0.097657 1.0898 0 0.097656 0 0.24609 0.050781 0.34766 0.050781 0.14844 0.050781 0.29688-0.097656 0.24609-0.24609 0-0.097656-0.050781-0.14844-0.097657-0.19922l0.29688-0.29688c0.097656-0.097656 0.14844-0.14844 0.24609-0.14844 0.14844 0.050781 0.29688 0 0.44531 0.050781 0.19922 0 0.44531 0.050782 0.64453-0.050781 0.24609-0.050781 0.49609-0.097656 0.74219-0.050781 0.097657 0 0.14844 0.050781 0.19922 0 0.39453-0.097656 0.89062-0.097656 1.2383-0.24609 0.050782-0.050781 0.19922 0 0.29688 0 0.44531 0.050781 0.94141 0.14844 1.4336 0.24609 0.19531 0.09375 0.24609 0.14453 0.24609 0.14453zm-4.8516 0.69141c-0.050781-0.050781-0.097656 0-0.050781 0.050781 0 0 0.050781 0.050782 0.050781 0.050782 0.050782 0.050781 0.097657 0 0.097657 0-0.046875-0.050782-0.097657-0.10156-0.097657-0.10156z" fill="#f4f4f4" fill-rule="evenodd"/>
  </g>
 </g>
 <g clip-path="url(#bc)">
  <g clip-path="url(#ar)">
   <path d="m77.633 50.719c0.24609-0.050781 0.39453-0.097656 0.59375-0.097656 0.44531-0.050782 0.83984-0.050782 1.2852-0.097656 0.39453 0.097656 0.69141-0.097657 1.0898 0 0.050782 0.050781 0.14844 0.050781 0.19922 0 0.34766-0.14844 0.79297 0.097656 1.1367-0.14844 0.14844-0.050781 0.24609-0.050781 0.44531-0.050781 0.34766 0.050781 0.69141 0 1.0898-0.097657 0.097656 0 0.24609-0.050781 0.34766-0.050781 0.34766 0.050781 0.74219-0.050781 1.0898-0.097656 0.34766-0.050781 0.69141 0 0.98828 0l0.050781 0.050781v0.097656c-0.19922 0.097657-0.34766 0.24609-0.59375 0.19922-0.19922 0-0.44531 0.050781-0.64453 0.050781-0.097657 0-0.24609 0.050782-0.34766 0.050782-0.39453 0.19922-0.79297 0.19922-1.1875 0.29688-0.24609 0.050781-0.54297 0.050781-0.79297 0.097656-0.097656 0-0.14844-0.050781-0.24609-0.14844-0.14844-0.14844-0.14844-0.14844-0.24609-0.050782s-0.14844 0.050782-0.19922 0l-0.097656-0.097656c-0.34766 0.050781-0.74219 0.050781-1.1367 0.14844-0.097656 0-0.097656 0.097656-0.19922 0.19922-0.050781 0.14844-0.097656 0.097656-0.19922 0-0.097656-0.097656-0.097656-0.19922-0.29688-0.19922-0.14844 0.050781-0.24609 0.050781-0.34766 0.24609-0.050781 0.14844-0.097656 0.097657-0.14844 0.050781-0.050781-0.14844-0.14844-0.14844-0.29688-0.19922-0.19922 0-0.34766 0.050781-0.49609 0-0.19922 0-0.44531-0.050782-0.64453-0.050782-0.046875 0.046876-0.09375-0.003906-0.19531-0.10156z" fill="#f4f4f4" fill-rule="evenodd"/>
  </g>
 </g>
 <g clip-path="url(#ag)">
  <g clip-path="url(#v)">
   <path d="m65.66 49.133c0.14844 0.050782 0.39453 0.097657 0.54297 0.14844l-0.097656 0.097656c-0.19922 0-0.34766-0.050781-0.54297 0.050782-0.34766 0.14844-0.74219 0.050781-1.0898 0.097656 0 0-0.050781 0.050781-0.097656 0-0.19922-0.097656-0.44531-0.14844-0.64453-0.24609 0 0-0.050781-0.050781 0.050781-0.050781 0.050781-0.050781 0.050781-0.050781 0.14844-0.050781 0.24609 0.050781 0.49609 0 0.74219 0.050781 0.097656 0 0.19922 0 0.29688-0.097657l0.097656-0.097656s0-0.097656-0.097656-0.097656c-0.050781-0.050781-0.14844-0.050781-0.19922 0-0.24609 0.050781-0.49609 0.097656-0.79297 0l-0.097656-0.097656c0.14844-0.050782 0.29688 0 0.44531-0.050782 0.14844-0.050781 0.24609-0.050781 0.39453 0 0.24609 0.050782 0.49609 0.097657 0.74219 0.050782 0.29687-0.097656 0.64453 0.050781 0.94141-0.050782 0.29688-0.097656 0.64453-0.050781 0.94141-0.050781 0.83984-0.050781 1.6836 0 2.5234-0.050781 0.097656 0 0.29687 0 0.44531 0.050781 0.29688 0.097657 0.59375 0.097657 0.94141 0.050781 0.19922 0 0.34766 0.050782 0.54297 0.050782l0.050781 0.050781-0.097656 0.097656c-0.69141 0.097657-1.3867 0.097657-2.1289 0.050781-0.097656 0-0.14844-0.050781-0.19922 0-0.29688 0-0.49609 0.097657-0.59375 0.39453 0 0.097656-0.19922 0.097656-0.24609 0.050781l-0.097656-0.097656c-0.050781-0.050781-0.14844-0.14844-0.24609-0.14844-0.44531-0.050781-0.89062-0.097656-1.2852-0.097656h-0.29688c-0.24609 0.050781-0.44531 0.050781-0.74219 0.050781-0.10547-0.20703-0.15625-0.15625-0.25391-0.058594-0.050781-0.050781-0.097656-0.097656-0.14844-0.050781l0.050781 0.050781h0.097656z" fill="#f4f4f4" fill-rule="evenodd"/>
  </g>
 </g>
 <g clip-path="url(#k)">
  <g clip-path="url(#du)">
   <path d="m82.633 51.855c-0.050781 0.050781 0 0.097656-0.097656 0.097656-0.34766 0.14844-0.69141 0.19922-1.0898 0.19922-0.19922 0-0.29687 0-0.49609 0.097656-0.34766 0.14844-0.64453 0.14844-0.98828 0.097656-0.29688 0-0.59375 0-0.89063 0.097656-0.097656 0-0.24609 0.050782-0.34766 0.050782-0.097656 0-0.14844-0.050782-0.19922 0-0.39453 0.097656-0.79297 0.097656-1.1875 0.097656-0.39453 0-0.79297 0.097656-1.2383 0.050781-0.49609 0-0.94141 0.14844-1.4336 0.050781l-0.050781-0.050781c0.050781-0.050781 0.050781-0.050781 0.097657-0.097656 0.097656 0 0.24609-0.050781 0.34766-0.050781 0.39453 0 0.74219-0.050782 1.0391-0.14844 0.14844-0.050781 0.24609-0.050781 0.44531-0.050781 0.39453 0 0.74219-0.050781 1.1367-0.14844 0.59375-0.097657 1.1367-0.14844 1.7305-0.14844 0.097656 0 0.24609-0.050781 0.34766-0.050781 0.39453-0.097657 0.69141-0.097657 1.0898-0.097657 0.097656 0 0.19922 0 0.34766-0.050781 0.49609 0.003907 0.94141 0.054688 1.4375 0.054688z" fill="#f4f4f4" fill-rule="evenodd"/>
  </g>
 </g>
 <g clip-path="url(#dj)">
  <g clip-path="url(#cy)">
   <path d="m64.82 52.648c0.050782-0.050782 0-0.097657 0.097657-0.097657 0.097656 0 0.19922-0.097656 0.24609-0.050781 0.39453 0 0.83984-0.050781 1.1875 0 0.097657 0 0.24609-0.050781 0.34766-0.050781 0.29688-0.097657 0.59375-0.097657 0.83984-0.050781 0.19922 0 0.34766 0.050781 0.54297 0.050781 0.097657 0 0.14844-0.050781 0.19922 0-0.050781 0.050781 0 0.097656-0.050781 0.14844 0 0.097656-0.050781 0.14844-0.14844 0.14844h-0.39453c-0.19922 0-0.34766-0.050782-0.49609 0-0.19922 0-0.29688 0.097656-0.49609 0.097656-0.050781 0.050781-0.097656 0-0.14844 0.050781-0.44531-0.050781-0.94141-0.050781-1.3867 0-0.042968-0.14844-0.19141-0.19922-0.33984-0.24609z" fill="#f4f4f4" fill-rule="evenodd"/>
  </g>
 </g>
 <g clip-path="url(#cq)">
  <g clip-path="url(#cp)">
   <path d="m52.648 47.105h0.49609c0.19922 0 0.34766 0.050781 0.39453 0.19922 0.097657 0.097656 0.24609 0.24609 0.44531 0.24609 0.14844 0.050781 0.29688 0.097657 0.34766 0.24609 0 0 0.050781 0.050781 0 0.097656l-0.050781 0.050781s-0.050781 0.050782-0.050781 0.050782c-0.39453 0-0.69141-0.097656-1.0391-0.14844-0.14844-0.050781-0.29688-0.097656-0.34766-0.24609-0.097656-0.19922-0.14844-0.34766-0.19531-0.49609z" fill="#f4f4f4" fill-rule="evenodd"/>
  </g>
 </g>
 <g clip-path="url(#co)">
  <g clip-path="url(#cn)">
   <path d="m60.316 49.828c0.050782 0.046875 0.050782 0.046875 0 0v0.097656c-0.050781 0.050781-0.097656 0.097657-0.19922 0.097657-0.49609 0-0.98828 0-1.4336-0.14844l-0.050782-0.050781s0-0.097657 0.050782-0.050781c0.34766-0.050782 0.64453-0.14844 0.94141-0.050782 0.14844 0.050782 0.34766 0.050782 0.49609 0 0.14453 0.054688 0.19531 0.10547 0.19531 0.10547z" fill="#f4f4f4" fill-rule="evenodd"/>
  </g>
 </g>
 <g clip-path="url(#cm)">
  <g clip-path="url(#cl)">
   <path d="m50.965 47.008c-0.097656 0.097657-0.19922 0.097657-0.29688 0.097657-0.44531-0.050781-0.89062 0-1.3359-0.050781h-0.79297c-0.097656 0-0.19922 0-0.34766-0.14844 0.14844-0.14844 0.34766-0.050781 0.44531-0.050781 0.19922 0 0.44531 0.050781 0.64453 0.050781 0.49609 0 0.98828 0 1.4336 0.050781 0.050781 0.050781 0.15234 0.050781 0.25 0.050781z" fill="#f4f4f4" fill-rule="evenodd"/>
  </g>
 </g>
 <g clip-path="url(#ck)">
  <g clip-path="url(#ci)">
   <path d="m62.344 49.086c-0.050781 0.050781-0.097656 0.097656-0.14844 0.14844-0.19922 0.097656-0.39453 0.19922-0.59375 0.097656-0.14844-0.050781-0.34766-0.050781-0.49609 0-0.097657 0-0.14844-0.14844-0.097657-0.19922 0.050782-0.050781 0-0.097656 0.050782-0.14844l0.097656-0.097656c0.097656 0.097656 0.14844 0.14844 0.24609 0.24609 0.050781 0.050782 0.097656 0.097657 0.19922 0.097657 0.25-0.14453 0.54688-0.046875 0.74219-0.14453z" fill="#f4f4f4" fill-rule="evenodd"/>
  </g>
 </g>
 <g clip-path="url(#ch)">
  <g clip-path="url(#cg)">
   <path d="m50.766 50.965c0.097656 0 0.14844 0.050781 0.19922 0 0.19922 0 0.39453-0.097656 0.59375-0.097656 0.097656 0 0.14844 0.050781 0.19922 0.097656l0.050782 0.050781s0 0.097656-0.050782 0.14844c-0.19922 0.097657-0.39453 0.19922-0.59375 0.19922-0.097656 0-0.19922 0-0.24609-0.050781-0.050781-0.14844-0.10156-0.29688-0.15234-0.34766z" fill="#f4f4f4" fill-rule="evenodd"/>
  </g>
 </g>
 <g clip-path="url(#cf)">
  <g clip-path="url(#ce)">
   <path d="m60.168 51.359 0.050781-0.050781c0.19922-0.19922 0.49609-0.19922 0.59375 0.097656 0.050781 0.050781 0 0.19922-0.097656 0.19922-0.14844 0.050781-0.34766 0.050781-0.44531-0.050781-0.10156-0.09375-0.10156-0.19531-0.10156-0.19531z" fill="#f4f4f4" fill-rule="evenodd"/>
  </g>
 </g>
 <g clip-path="url(#cd)">
  <g clip-path="url(#cc)">
   <path d="m54.875 47.848 0.097656-0.097656c0.34766 0.050781 0.69141 0 1.0391 0.050781l0.050781 0.050781c-0.050781 0.050782-0.050781 0.050782-0.097656 0.097657-0.34766 0.050781-0.69141 0.097656-1.0898 0 0.046875 0.046875 0.046875-0.050781 0-0.10156z" fill="#f4f4f4" fill-rule="evenodd"/>
  </g>
 </g>
 <g clip-path="url(#cb)">
  <g clip-path="url(#ca)">
   <path d="m67.938 49.234c-0.050781 0.14844-0.24609 0.24609-0.39453 0.29688-0.14844 0.050781-0.29688 0-0.39453-0.097656l-0.050782-0.050782c0.050782-0.050781 0-0.097656 0.097656-0.097656 0.24609-0.050781 0.49219-0.003906 0.74219-0.050781z" fill="#f4f4f4" fill-rule="evenodd"/>
  </g>
 </g>
 <g clip-path="url(#bz)">
  <g clip-path="url(#bx)">
   <path d="m62.594 50.023c0.050781-0.050782 0.050781-0.14844 0.050781-0.14844 0.29688-0.097656 0.59375-0.097656 0.89062 0l0.050782 0.050781-0.050782 0.050781c-0.30078 0.097657-0.59766 0-0.94141 0.046876z" fill="#f4f4f4" fill-rule="evenodd"/>
  </g>
 </g>
 <g clip-path="url(#bw)">
  <g clip-path="url(#bv)">
   <path d="m67.391 48.094 0.050781 0.050781-0.050781 0.050781c-0.19922 0.097657-0.39453 0.097657-0.64453 0.050782l-0.050782-0.050782s0-0.097656 0.050782-0.050781c0.30078-0.097656 0.44922-0.050781 0.64453-0.050781z" fill="#f4f4f4" fill-rule="evenodd"/>
  </g>
 </g>
 <g clip-path="url(#bu)">
  <g clip-path="url(#bt)">
   <path d="m68.184 48.293c-0.050782-0.050781-0.14844-0.050781-0.14844-0.050781 0.050782-0.050782 0.050782-0.050782 0.14844-0.050782 0.19922 0 0.44531-0.050781 0.59375-0.097656l0.050781 0.050781c0.050781 0.050781 0 0.097657-0.050781 0.050781-0.14844 0.046876-0.39453 0.097657-0.59375 0.097657z" fill="#f4f4f4" fill-rule="evenodd"/>
  </g>
 </g>
 <g clip-path="url(#bs)">
  <g clip-path="url(#br)">
   <path d="m77.238 49.727s0.050781 0.050782 0 0c-0.24609 0.24609-0.54297 0.24609-0.79297 0.19922l-0.050781-0.050781 0.050781-0.050781c0.29688-0.097657 0.54688-0.046875 0.79297-0.097657 0.050781 0.050782 0 0 0 0z" fill="#f4f4f4" fill-rule="evenodd"/>
  </g>
 </g>
 <g clip-path="url(#bq)">
  <g clip-path="url(#bp)">
   <path d="m62.641 51.359c0.050781-0.050781 0.14844-0.14844 0.24609-0.14844 0.097656 0 0.14844 0.050781 0.24609 0.14844 0 0 0.050782 0.050781 0 0.097656-0.14844 0.14844-0.29687 0.19922-0.39453 0-0.097656 0.003907-0.097656-0.097656-0.097656-0.097656z" fill="#f4f4f4" fill-rule="evenodd"/>
  </g>
 </g>
 <g clip-path="url(#bo)">
  <g clip-path="url(#bm)">
   <path d="m73.973 48.641 0.050782 0.050781-0.050782 0.050782c-0.14844 0.050781-0.39453 0.097656-0.54297 0.050781l-0.050782-0.050781v-0.097657c0.24609-0.054687 0.44531-0.054687 0.59375-0.003906z" fill="#f4f4f4" fill-rule="evenodd"/>
  </g>
 </g>
 <g clip-path="url(#bl)">
  <g clip-path="url(#bk)">
   <path d="m65.215 51.359c0.14844-0.14844 0.24609-0.14844 0.39453-0.097656 0.097656 0 0.14844 0.050781 0.19922 0.097656 0.050781 0.050781-0.097656 0.097656-0.19922 0.097656-0.046875-0.046875-0.19531-0.097656-0.39453-0.097656z" fill="#f4f4f4" fill-rule="evenodd"/>
  </g>
 </g>
 <g clip-path="url(#bj)">
  <g clip-path="url(#bi)">
   <path d="m60.414 50.52c-0.050781 0.14844-0.14844 0.24609-0.29687 0.19922 0 0-0.050782-0.050781-0.097657-0.097656 0 0 0-0.097656 0.050781-0.14844 0.046876 0.046875 0.14844 0.046875 0.34375 0.046875-0.046874-0.050781-0.046874-0.050781 0 0z" fill="#f4f4f4" fill-rule="evenodd"/>
  </g>
 </g>
 <g clip-path="url(#bh)">
  <g clip-path="url(#bg)">
   <path d="m69.125 52.598c0.050781-0.050781 0.097656-0.097656 0.14844-0.14844 0.14844-0.050781 0.24609-0.050781 0.29687-0.097657 0.097657 0 0.14844 0.050782 0.14844 0.050782l-0.097656 0.097656c-0.15234 0.046875-0.34766 0.046875-0.49609 0.097656z" fill="#f4f4f4" fill-rule="evenodd"/>
  </g>
 </g>
 <g clip-path="url(#bf)">
  <g clip-path="url(#be)">
   <path d="m70.211 51.211 0.097656 0.097656-0.050782 0.050781c-0.097656 0.097656-0.24609 0.050781-0.29687-0.097656-0.050782-0.050781 0-0.097657 0.097656-0.097657 0.054687 0.046876 0.15234 0.046876 0.15234 0.046876z" fill="#f4f4f4" fill-rule="evenodd"/>
  </g>
 </g>
 <g clip-path="url(#bd)">
  <g clip-path="url(#bb)">
   <path d="m63.68 52.695c-0.39453 0.097657-0.39453 0.097657-0.64453-0.050781 0.19922-0.097656 0.44922-0.14453 0.64453 0.050781z" fill="#f4f4f4" fill-rule="evenodd"/>
  </g>
 </g>
 <g clip-path="url(#ba)">
  <g clip-path="url(#az)">
   <path d="m93.27 48.738c-0.19922 0-0.34766 0.050781-0.59375 0.097657 0 0-0.050781-0.050782-0.050781-0.050782l0.097656-0.097656c0.14844-0.046875 0.34766-0.046875 0.54688 0.050781z" fill="#f4f4f4" fill-rule="evenodd"/>
  </g>
 </g>
 <g clip-path="url(#ay)">
  <g clip-path="url(#ax)">
   <path d="m69.719 49.828c0.050781 0.050781 0 0.097656 0 0.097656h-0.29688l-0.050781-0.050781 0.050781-0.050781c0.046875-0.046875 0.14844-0.046875 0.29688 0.003906z" fill="#f4f4f4" fill-rule="evenodd"/>
  </g>
 </g>
 <g clip-path="url(#aw)">
  <g clip-path="url(#av)">
   <path d="m50.965 47.008c0.19922 0 0.34766 0.050782 0.54297 0.050782 0 0.097656-0.097656 0-0.14844 0.050781-0.097656-0.003906-0.24609-0.054687-0.39453-0.10156z" fill="#f4f4f4" fill-rule="evenodd"/>
  </g>
 </g>
 <g clip-path="url(#au)">
  <g clip-path="url(#at)">
   <path d="m64.57 49.828c0.050782 0.050781 0.050782 0.050781 0.097657 0.097656l-0.097657 0.097657c-0.050781 0.050781-0.097656 0-0.097656 0-0.050781-0.050782-0.050781-0.050782-0.097656-0.097657l0.097656-0.097656h0.097656z" fill="#f4f4f4" fill-rule="evenodd"/>
  </g>
 </g>
 <g clip-path="url(#as)">
  <g clip-path="url(#aq)">
   <path d="m72.539 48.688c0.050782-0.050781 0.24609-0.14844 0.29688 0 0 0 0.050781 0.050781-0.050782 0.050781-0.050781 0.050781-0.14844 0.050781-0.24609-0.050781v0z" fill="#f4f4f4" fill-rule="evenodd"/>
  </g>
 </g>
 <g clip-path="url(#ap)">
  <g clip-path="url(#ao)">
   <path d="m76.398 48.984h0.39453l0.050781 0.050781c-0.050781 0.050782-0.050781 0.050782-0.097656 0.097656-0.15234 0.050782-0.25-0.046874-0.34766-0.14844z" fill="#f4f4f4" fill-rule="evenodd"/>
  </g>
 </g>
 <g clip-path="url(#an)">
  <g clip-path="url(#am)">
   <path d="m62.344 49.086c0.19922 0 0.34766 0.050781 0.54297 0.050781l0.050781 0.050781-0.097656 0.097656c-0.14844 0.046875-0.34766-0.050781-0.49609-0.19922z" fill="#f4f4f4" fill-rule="evenodd"/>
  </g>
 </g>
 <g clip-path="url(#al)">
  <g clip-path="url(#ak)">
   <path d="m54.082 50.914c-0.050781 0.050782-0.050781 0.14844-0.097656 0.19922 0 0-0.050781 0.050781-0.14844 0.050781 0 0-0.050782-0.050781-0.097657-0.097656 0 0 0-0.097656 0.097657-0.097656 0.097656-0.003906 0.19531-0.003906 0.24609-0.054688z" fill="#f4f4f4" fill-rule="evenodd"/>
  </g>
 </g>
 <g clip-path="url(#aj)">
  <g clip-path="url(#ai)">
   <path d="m65.758 49.926c0.050782-0.050781 0.14844-0.050781 0.14844-0.050781l0.097656 0.097656s-0.050781 0.050782-0.050781 0.050782c-0.050781 0.050781-0.14844 0.050781-0.19922 0 0.054688-0.046876 0.003906-0.097657 0.003906-0.097657z" fill="#f4f4f4" fill-rule="evenodd"/>
  </g>
 </g>
 <g clip-path="url(#ah)">
  <g clip-path="url(#af)">
   <path d="m61.801 51.211c0.050781 0.050781 0.050781 0.050781 0 0 0.050781 0.14844 0.050781 0.14844-0.050781 0.14844-0.097656 0-0.097656 0-0.097656-0.097656 0 0 0.097656 0 0.14844-0.050781z" fill="#f4f4f4" fill-rule="evenodd"/>
  </g>
 </g>
 <g clip-path="url(#ae)">
  <g clip-path="url(#ad)">
   <path d="m57.547 51.707c-0.097656-0.097656-0.19922-0.097656-0.29688-0.19922 0 0-0.050781-0.050781 0-0.097656l0.050781-0.050781c0.097657 0.19922 0.14453 0.25 0.24609 0.34766z" fill="#f4f4f4" fill-rule="evenodd"/>
  </g>
 </g>
 <g clip-path="url(#ac)">
  <g clip-path="url(#ab)">
   <path d="m56.508 51.262v0l-0.050781 0.050781 0.050781-0.050781z" fill="#f4f4f4" fill-rule="evenodd"/>
  </g>
 </g>
 <g clip-path="url(#aa)">
  <g clip-path="url(#z)">
   <path d="m84.859 48.641c0.14844-0.14844 0.14844-0.14844 0.44531-0.050781-0.14844 0.14844-0.29688 0.097656-0.44531 0.050781z" fill="#f4f4f4" fill-rule="evenodd"/>
  </g>
 </g>
 <g clip-path="url(#y)">
  <g clip-path="url(#x)">
   <path d="m69.125 52.598c-0.29688 0-0.49609-0.097656-0.74219-0.24609 0.097657 0 0.14844 0.050782 0.24609 0.050782 0.14844 0.046875 0.29688 0.097656 0.49609 0.19531z" fill="#f4f4f4" fill-rule="evenodd"/>
  </g>
 </g>
 <g clip-path="url(#w)">
  <g clip-path="url(#u)">
   <path d="m67.242 51.113c0.050781 0.050781 0.097656 0.097657 0.097656 0.097657-0.050782 0.050781-0.097656 0.097656-0.14844 0.050781l-0.050781-0.050781c-0.046875-0.046876 0.003906-0.097657 0.10156-0.097657z" fill="#f4f4f4" fill-rule="evenodd"/>
  </g>
 </g>
 <g clip-path="url(#t)">
  <g clip-path="url(#s)">
   <path d="m69.422 49.332c0.046875 0.050781 0.097656 0 0 0 0.097656 0 0.14844 0.050781 0.097656 0.097657l-0.097656-0.097657c0.046875 0.050781 0.046875 0.050781 0 0z" fill="#f4f4f4" fill-rule="evenodd"/>
  </g>
 </g>
 <g clip-path="url(#r)">
  <g clip-path="url(#q)">
   <path d="m72.242 51.164c0.046874-0.050781 0.046874-0.050781 0 0 0.050781-0.050781 0.097656 0 0.097656 0 0.097656 0 0.050781 0.046876-0.097656 0 0.046874 0.046876 0.097656 0 0 0z" fill="#f4f4f4" fill-rule="evenodd"/>
  </g>
 </g>
 <g clip-path="url(#p)">
  <g clip-path="url(#o)">
   <path d="m44.086 46.66c-0.046876-0.050781-0.097657 0 0 0-0.097657 0-0.14844-0.050781-0.050782-0.050781-0.046875-0.046875 0.050782-0.046875 0.050782 0.050781 0-0.097656-0.046876-0.050781 0 0z" fill="#f4f4f4" fill-rule="evenodd"/>
  </g>
 </g>
 <g clip-path="url(#n)">
  <g clip-path="url(#m)">
   <path d="m73.082 52.797c0.050781-0.050781 0.050781-0.14844 0.14844-0.14844l0.050781 0.050781c0.050781 0.050781 0 0.097656-0.050781 0.050781-0.050781 0.046875-0.097657 0.09375-0.14844 0.046875z" fill="#f4f4f4" fill-rule="evenodd"/>
  </g>
 </g>
 <g clip-path="url(#l)">
  <g clip-path="url(#j)">
   <path d="m46.363 46.66c0.050781 0.050782 0.14844 0.050782 0.19922 0.097656-0.050781 0.050782-0.14844-0.046874-0.19922-0.097656z" fill="#f4f4f4" fill-rule="evenodd"/>
  </g>
 </g>
 <g clip-path="url(#i)">
  <g clip-path="url(#h)">
   <path d="m75.012 50.867v0.097656l-0.050781 0.050781c-0.050782 0.050781-0.050782-0.050781-0.050782-0.050781 0.10156 0 0.10156-0.097656 0.10156-0.097656z" fill="#f4f4f4" fill-rule="evenodd"/>
  </g>
 </g>
 <g clip-path="url(#g)">
  <g clip-path="url(#f)">
   <path d="m64.77 52.598c-0.050781 0.050782-0.14844 0.050782-0.14844 0.050782l-0.050782-0.050782c-0.050781-0.050781 0-0.097656 0.097657-0.097656 0.003906 0.097656 0.050781 0.046875 0.10156 0.097656z" fill="#f4f4f4" fill-rule="evenodd"/>
  </g>
 </g>
 <g clip-path="url(#e)">
  <g clip-path="url(#d)">
   <path d="m86.145 49.531c0.050781-0.050781 0.050781-0.050781 0 0 0.097657 0 0.097657 0 0 0 0.097657 0.097656 0.097657 0.097656 0 0 0.050781 0.046875 0.050781 0.046875 0 0z" fill="#f4f4f4" fill-rule="evenodd"/>
  </g>
 </g>
 <g clip-path="url(#c)">
  <g clip-path="url(#b)">
   <path d="m86.539 50.125c0.050782 0.050781 0 0.097656-0.050781 0.050781l-0.050781-0.050781h0.10156c-0.050781-0.050781 0 0 0 0z" fill="#f4f4f4" fill-rule="evenodd"/>
  </g>
 </g>
 <g clip-path="url(#a)">
  <g clip-path="url(#dt)">
   <path d="m47.305 46.809h0.097656l0.050781 0.050781s-0.10156 0-0.14844-0.050781c0.046874 0.050781 0.046874 0.050781 0 0z" fill="#f4f4f4" fill-rule="evenodd"/>
  </g>
 </g>
 <g clip-path="url(#ds)">
  <g clip-path="url(#dr)">
   <path d="m87.578 49.977 0.097656-0.097656s0.050781-0.050781 0.097657 0c0.050781 0.050782 0.050781 0.050782-0.050782 0.050782-0.046875 0.046874-0.09375-0.003907-0.14453 0.046874z" fill="#f4f4f4" fill-rule="evenodd"/>
  </g>
 </g>
 <g clip-path="url(#dq)">
  <g clip-path="url(#dp)">
   <path d="m61.109 49.926s-0.050781 0.050781 0 0c-0.050781 0.050781-0.050781 0.050781-0.097656 0-0.003907 0 0.046875-0.050781 0.097656 0z" fill="#f4f4f4" fill-rule="evenodd"/>
  </g>
 </g>
 <g clip-path="url(#do)">
  <g clip-path="url(#dn)">
   <path d="m85.305 48.59s0.046874 0.050781 0 0h0.097656c0.050781 0.050781 0 0.097656-0.097656 0z" fill="#f4f4f4" fill-rule="evenodd"/>
  </g>
 </g>
 <g clip-path="url(#dm)">
  <g clip-path="url(#dl)">
   <path d="m64.078 51.508 0.046875-0.046874z" fill="#f4f4f4" fill-rule="evenodd"/>
  </g>
 </g>
 <g clip-path="url(#dk)">
  <g clip-path="url(#di)">
   <path d="m73.922 49.184s0.050781 0.050781 0 0z" fill="#f4f4f4" fill-rule="evenodd"/>
  </g>
 </g>
 <g clip-path="url(#dh)">
  <g clip-path="url(#dg)">
   <path d="m75.012 50.867 0.050781 0.050781c0.046875-0.050781 0-0.003907-0.050781-0.050781z" fill="#f4f4f4" fill-rule="evenodd"/>
  </g>
 </g>
 <g clip-path="url(#df)">
  <g clip-path="url(#de)">
   <path d="m67.938 49.234c0.050781 0.050781 0.097656 0 0.14844 0.050781-0.050782 0.046875-0.10156-0.003906-0.14844-0.050781z" fill="#f4f4f4" fill-rule="evenodd"/>
  </g>
 </g>
 <g clip-path="url(#dd)">
  <g clip-path="url(#dc)">
   <path d="m77.484 48.984 0.050781 0.050781z" fill="#f4f4f4" fill-rule="evenodd"/>
  </g>
 </g>
 <g clip-path="url(#db)">
  <g clip-path="url(#da)">
   <path d="m93.27 48.738-0.050781-0.050781z" fill="#f4f4f4" fill-rule="evenodd"/>
  </g>
 </g>
 <g clip-path="url(#cz)">
  <g clip-path="url(#cx)">
   <path d="m87.578 49.977-0.050781-0.050781z" fill="#f4f4f4" fill-rule="evenodd"/>
  </g>
 </g>
 <g clip-path="url(#cw)">
  <g clip-path="url(#cv)">
   <path d="m85.055 49.234h0.10156l-0.050781 0.046875z" fill="#f4f4f4" fill-rule="evenodd"/>
  </g>
 </g>
 <g clip-path="url(#cu)">
  <g clip-path="url(#ct)">
   <path d="m54.082 50.914c0.097657 0 0.14844 0.050782 0.29688 0.097657-0.097656 0.003906-0.14844-0.046875-0.29688-0.097657z" fill="#f4f4f4" fill-rule="evenodd"/>
  </g>
 </g>
 <g clip-path="url(#cs)">
  <g clip-path="url(#cr)">
   <path d="m76.398 48.984 0.046874 0.050781z" fill="#f4f4f4" fill-rule="evenodd"/>
  </g>
 </g>
</svg>
