<?xml version="1.0" encoding="UTF-8"?>
<svg width="100pt" height="100pt" version="1.1" viewBox="0 0 100 100" xmlns="http://www.w3.org/2000/svg">
 <defs>
  <clipPath id="a">
   <path d="m18.512 27h62.977v46h-62.977z"/>
  </clipPath>
 </defs>
 <rect width="100" height="100"/>
 <g clip-path="url(#a)">
  <path d="m79.848 59.949c-0.23438-0.15625-0.54688-0.3125-0.78125-0.39062-0.078125-0.3125-0.15625-0.54688-0.23438-0.85938 0-0.078125-0.23438-0.15625-0.3125-0.15625-0.23438 0.15625-0.54688 0.23438-0.78125 0.46875-0.46875 0.39062-1.0156 0.70312-1.5625 1.0156-0.15625 0.078125-0.3125 0.23438-0.46875 0.3125-0.625 0.46875-1.25 1.0156-1.9492 1.4844-0.3125 0.23438-0.70312 0.46875-1.0156 0.70312-1.25 0.9375-2.4961 1.9492-3.8242 2.8867-0.54688 0.54688-1.25 0.85938-1.793 1.3281-0.23438 0.23437-0.54688 0.39062-0.78125 0.54687-0.39062 0.23438-0.78125 0.46875-1.0938 0.78125-0.15625 0.15625-0.39062 0.3125-0.625 0.39063-0.625 0.3125-1.25 0.70312-1.793 1.1719-0.23438 0.23438-0.46875 0.39063-0.78125 0.54688-0.39062 0.15625-0.70312 0.39062-1.0156 0.625-0.078125 0.078124-0.15625 0.15625-0.23438 0.15625-0.9375 0.54687-1.793 1.25-2.8086 1.7188-0.46875 0.23437-0.9375 0.23437-1.4062 0.078124-0.15625-0.078124-0.3125-0.15625-0.46875-0.3125-0.23438-0.3125-0.39063-0.54687-0.46875-0.9375 0-0.15625-0.078126-0.39062-0.15625-0.54687v-0.39063c0.15625-0.625 0.3125-1.1719 0.54687-1.793 0.078126-0.15625 0.23438-0.3125 0.39063-0.46875 0.70312-0.3125 1.0938-1.0156 1.7188-1.4062 0 0 0.078124-0.078125 0.078124-0.078125 0.39063-0.70312 1.0938-1.0938 1.7188-1.5625s1.25-0.9375 1.8711-1.4062c0.39062-0.3125 0.78125-0.54688 1.1719-0.85938s0.78125-0.54688 1.1719-0.85938c0.23438-0.23438 0.54688-0.39062 0.625-0.70312 0.078125-0.23438 0.23438-0.39062 0.46875-0.54688l0.15625-0.15625c0.39062-0.3125 0.85938-0.625 1.25-0.9375s0.70312-0.70312 1.0938-1.0156c0.23438-0.23438 0.46875-0.46875 0.625-0.70312-0.3125-0.15625-0.625-0.23438-1.0156-0.15625-0.15625 0.078125-0.39062 0-0.54688 0-0.54688 0-1.0156-0.078125-1.5625 0h-0.15625c-0.85938-0.23438-1.7188-0.078125-2.5742-0.15625-0.15625 0-0.39063 0-0.54688 0.078125-0.15625 0-0.3125 0.078125-0.46875 0-0.39062-0.15625-0.85937-0.078125-1.25-0.078125h-0.78125c-0.625-0.078125-1.25-0.078125-1.9492 0.078125-0.3125 0.078125-0.625 0-0.9375 0-0.85938-0.078125-1.7188-0.078125-2.4961-0.078125h-0.3125c-0.3125 0.15625-0.70312 0.078125-1.0938 0.078125-0.3125 0-0.54688-0.078125-0.85938 0h-0.3125c-0.9375-0.15625-1.793 0-2.6523 0.15625-0.39062 0.078125-0.78125 0.15625-1.1719 0.078125-0.23438-0.078125-0.46875 0-0.70312 0-0.3125 0.078125-0.625 0.078125-0.9375 0.078125-0.15625 0-0.23438 0-0.39062-0.078125-0.46875-0.23438-1.0156-0.15625-1.4844-0.078125-0.39062 0.078125-0.70312 0.078125-1.0938 0.078125-0.54688-0.078125-1.0156 0-1.5625 0.15625-0.3125 0.15625-0.625 0.15625-0.9375 0-0.23438-0.078125-0.46875-0.078125-0.78125 0-0.54688 0.15625-1.1719 0.15625-1.7188 0.15625-0.9375 0-1.793 0.078125-2.7305 0-0.3125 0-0.54687-0.078125-0.85937-0.078125-0.23438 0-0.54688 0.078125-0.78125 0.078125h-1.8711c-0.39062 0-0.78125 0-1.1719 0.078125-0.70312 0.078125-1.4844 0.15625-2.1836 0.078125-0.39062-0.078125-0.85938 0-1.25 0-0.625 0-1.3281 0-1.9492-0.078125-0.46875 0-0.9375-0.078125-1.4844-0.078125-0.23438 0-0.54688 0-0.78125 0.078125-0.23438 0-0.46875 0.15625-0.625 0.39062-0.078125 0.15625-0.15625 0.3125-0.3125 0.3125-0.23438-0.078125-0.23438-0.39062-0.46875-0.39062-0.3125-0.23438-0.54688-0.54688-0.70312-0.9375l-0.23438-0.70312c-0.078125-0.23438-0.078125-0.54688-0.15625-0.78125s-0.23438-0.46875-0.23438-0.70312-0.15625-0.39062-0.39062-0.54688c-0.078125-0.078125-0.23438-0.15625-0.23438-0.23438-0.39062-0.625-0.78125-1.1719-1.0938-1.793-0.15625-0.23438-0.15625-0.23438 0.15625-0.54688 0 0 0-0.078125 0.078125-0.078125 0-0.078125-0.078125-0.23438-0.15625-0.3125-0.078125-0.15625 0-0.23438 0.078125-0.39062 0.078125-0.078125 0.078125-0.23438 0-0.39062-0.15625-0.3125-0.078125-0.54688 0.078125-0.78125 0.3125-0.46875 0.70312-0.70312 1.25-0.625 0.15625 0 0.39062 0.078125 0.54688 0.078125 0.70312 0.15625 1.3281 0.23438 2.0273 0.15625h0.39062c1.3281 0.078125 2.6523 0.078125 3.9805 0 0.625 0 1.3281 0.15625 1.9492 0.078125 0.625 0 1.25-0.078125 1.8711-0.078125 0.625 0 1.3281 0.078125 1.9492 0.078125 1.1719 0 2.418 0.078125 3.5898 0.15625 0.625 0 1.25 0.078125 1.9492 0.078125 0.625 0 1.25 0.078125 1.8711 0h0.54688c0.9375 0.23438 1.8711 0.078125 2.8086 0.078125 0.625 0 1.25-0.078125 1.8711 0h0.39062c1.4062-0.15625 2.8086-0.078125 4.293-0.078125 1.0156 0 2.0273-0.078125 3.1211-0.078125 0.15625 0 0.23438-0.078125 0.39062 0 0.54688 0.15625 1.1719 0 1.7188 0 1.0156-0.078125 2.0273 0 3.1211 0 0.85938 0 1.7188 0.078125 2.6523 0h0.9375c0.39062 0.078125 0.78125 0 1.1719 0 0.625 0 1.25-0.078125 1.8711-0.078125 0.46875 0 0.9375-0.078125 1.3281-0.078125 0.23437 0 0.54687-0.078125 0.78125-0.078125 0.078124 0 0.15625 0 0.23437-0.15625 0-0.078125 0-0.23438-0.15625-0.3125-0.15625-0.15625-0.39062-0.23438-0.54687-0.39062-0.23438-0.15625-0.46875-0.3125-0.70313-0.54688-0.46875-0.39062-0.85937-0.85938-1.4062-1.1719-0.3125-0.23438-0.625-0.54688-0.85937-0.85938-0.46875-0.625-1.0938-1.25-1.4844-1.8711l-0.46875-0.46875c-0.70312-0.70312-1.4844-1.4844-2.1836-2.1836-0.23438-0.23437-0.39062-0.39062-0.54688-0.625-0.15625-0.23437-0.39062-0.54687-0.625-0.70312-0.23438-0.23438-0.39062-0.54688-0.54688-0.78125-0.078125-0.15625-0.23438-0.3125-0.39062-0.46875-0.625-0.39063-1.0938-0.9375-1.4062-1.5625-0.078125-0.15625-0.23438-0.3125-0.3125-0.46875-0.3125-0.39063-0.625-0.70313-0.9375-1.0938-0.39062-0.46875-0.85938-0.9375-1.0156-1.6406 0-0.15625-0.15625-0.23437-0.23438-0.3125 0-0.078124-0.078125-0.078124-0.15625-0.15625-0.3125-0.23437-0.625-0.54687-0.78125-0.85937-0.23438-0.3125-0.3125-0.625-0.46875-0.9375-0.23438-0.54688-0.3125-1.0938 0.078125-1.5625 0.078125-0.078126 0.15625-0.23438 0.15625-0.3125 0-0.3125 0.3125-0.54688 0.39062-0.85938 0.078125-0.70312 0.23438-1.3281 0.15625-2.0273 0-0.23438 0.078125-0.39062 0.23438-0.54688s0.39062-0.15625 0.54688 0c-0.35156 0.097656-0.35156 0.17578-0.27344 0.25391 0.078125 0.15625 0.23438 0.3125 0.39062 0.23438s0.078125-0.23438 0.078125-0.3125c0-0.23438 0.23438-0.38672 0.39062-0.38672s0.39062 0.078125 0.54688 0.23438l0.078125 0.078125c0.3125 0.3125 0.625 0.54688 0.9375 0.85938s0.625 0.54688 1.0156 0.78125c0.39062 0.3125 0.85938 0.54688 1.1719 1.0156-0.003906 0.15234 0.15234 0.23047 0.23047 0.30859 0.46875 0.39062 0.85938 0.78125 1.1719 1.25 0 0.078125 0.078125 0.15625 0.078125 0.15625 0.46875 0.46875 0.9375 1.0156 1.4062 1.4844 0.625 0.625 1.25 1.3281 1.8711 1.9492 0.39062 0.39062 0.70312 0.85938 1.1719 1.0938 0.23438 0.15625 0.39062 0.3125 0.625 0.46875 0.625 0.70312 1.4062 1.25 2.1836 1.7188 0.70313 0.70312 1.5625 1.1719 2.1836 1.8711 0.23438 0.3125 0.54688 0.54687 0.85938 0.78125 0.078125 0.078124 0.23438 0.15625 0.3125 0.23437 0.3125 0.46875 0.78125 0.78125 1.1719 1.1719 0.39062 0.39062 0.70312 0.78125 1.0938 1.0938 0.46875 0.46875 1.0156 0.9375 1.4062 1.4844 0.23438 0.3125 0.46875 0.46875 0.78125 0.70313 0.625 0.46875 1.25 1.0156 1.793 1.6406 0.078125 0.078126 0.15625 0.15625 0.15625 0.23438 0.23438 0.23437 0.46875 0.46875 0.70312 0.70312 0.23438 0.23438 0.39062 0.46875 0.625 0.70313 0.23438 0.078124 0.46875 0.078124 0.70312 0.15625 0.46875 0.15625 0.85938 0.39062 1.1719 0.78125 0.23438 0.3125 0.46875 0.54687 0.70312 0.85937 0.23438 0.39063 0.39062 0.85938 0.54688 1.3281 0.078125 0.15625 0 0.39062 0.078125 0.54687 0 0.15625 0 0.3125 0.078125 0.46875 0.23438 0.54688 0.3125 0.54688 0.23438 1.1719v0.078124c-0.078125 0.39063 0.15625 0.70313 0.078125 1.0156s0 0.625 0.078125 0.9375c-0.089844 0.44531-0.089844 0.52344-0.089844 0.67969-0.078125 0.625-0.23438 1.1719-0.46875 1.793-0.15625 0.39062-0.39062 0.70312-0.70312 0.85938-0.15625 0.078125-0.3125 0.15625-0.46875 0.15625zm-46.586-5.3047c-0.15625 0.078125-0.3125 0.15625-0.54688 0.15625-0.23438 0.078125-0.46875 0.078125-0.70312 0.078125-0.078125 0-0.15625 0-0.15625 0.078125-0.23438 0.15625-0.46875 0.15625-0.78125 0.15625h-1.0156l-0.15625-0.15625s0-0.078125-0.078125-0.078125c-0.078125-0.078125-0.23438-0.078125-0.3125 0.078125v0.078125c-0.078125 0.3125-0.15625 0.3125-0.39062 0.3125-0.15625 0-0.3125-0.078125-0.46875-0.078125s-0.3125 0-0.46875 0.15625c-0.078125 0.15625-0.23438 0.15625-0.3125 0.39062 0.078125 0 0.078125 0.078125 0.15625 0.078125 0.39062-0.078125 0.85938 0.078125 1.1719-0.23438 0.078125 0 0.23438 0 0.23438 0.078125 0.23438 0.23438 0.54688 0.23438 0.78125 0.23438h1.4844c0.54688 0 1.0938 0 1.6406 0.15625 0.15625 0 0.23438 0.078125 0.39062 0.078125 0.54688 0 1.0938 0 1.6406-0.078125 0.54688 0 1.0156-0.078125 1.5625-0.078125 0.70312 0.15625 1.4844 0 2.1836 0.15625 0.625 0.078125 1.25-0.078125 1.9492-0.078125 0.23438 0 0.39062-0.15625 0.39062-0.46875 0-0.23438 0.23438-0.078125 0.39062-0.15625l0.078125-0.078125v-0.078125c-0.23438-0.078125-0.39062-0.23438-0.625-0.3125-0.46875 0.15625-0.9375 0.23438-1.4062 0.23438-0.23438 0-0.39062-0.078125-0.54688-0.23438-0.078125-0.078125-0.15625-0.078125-0.23438-0.15625-0.15625 0.078125-0.39062 0.15625-0.54688 0.23438-0.15625-0.15625-0.23438-0.23438-0.39062-0.3125-0.39062 0.23438-0.78125 0.23438-1.1719 0.23438s-0.85938 0-1.25-0.078125c-0.3125 0-0.54688 0-0.85938 0.078125-0.078125 0-0.15625 0-0.15625 0.078125h-0.15625c-0.23438 0-0.23438 0.078125-0.078125 0.3125 0 0.078125 0.078125 0.15625 0.078125 0.15625 0 0.078125-0.078125 0.078125-0.15625 0.078125h-0.9375-0.078125v-0.078125c0.15625-0.078125 0.23438-0.15625 0.39062-0.3125 0 0 0.078125-0.15625 0-0.15625-0.14844-0.078125-0.30469-0.3125-0.53906-0.46875zm5.3828 2.6523h0.9375 1.5625 1.25 0.85938c0.46875 0 0.9375-0.078125 1.4844 0 0.15625 0 0.23438 0 0.39062-0.078125l0.078125-0.078125c0-0.078125-0.078125-0.15625-0.078125-0.15625-0.15625 0-0.23438-0.078125-0.39062-0.078125-0.78125-0.078125-1.6406-0.15625-2.418-0.23438h-0.39062-2.418-0.9375c-0.54688 0-1.0156 0-1.5625-0.078125-0.39062 0-0.85938 0-1.25 0.078125-0.54688 0.078125-1.1719 0.15625-1.7188 0.078125-0.46875 0-0.9375 0.078125-1.4062 0.23438-0.078125 0-0.078125 0.078125-0.078125 0.15625l0.078125 0.078125c0.15625 0 0.39062 0.078125 0.54688 0.078125h2.1055 1.3281 2.0273zm10.691-1.6406c-0.23438-0.078125-0.46875-0.15625-0.625-0.23438s-0.39063-0.078125-0.54688-0.078125c-1.0156 0-2.0273-0.078125-2.9648 0.078125-0.078125 0-0.15625 0-0.15625 0.078125-0.078125 0-0.15625 0.15625-0.15625 0.23438s0.078125 0.15625 0.15625 0.23438c0.15625 0 0.23438 0.078125 0.39062 0.078125 1.1719 0 2.418 0 3.5898-0.078125 0.078124-0.15625 0.15625-0.15625 0.3125-0.3125zm-6.3203 0c0.078125 0 0.15625-0.078125 0.23438-0.078125 0.078125-0.078125 0.15625-0.15625 0.15625-0.23438s-0.078125-0.15625-0.15625-0.15625c-0.15625-0.078125-0.39062 0-0.54688 0.078125-0.078125 0-0.078125 0.078125-0.078125 0.15625s0.078125 0.15625 0.15625 0.23438h0.23438zm-16.387-0.23438h-0.3125s-0.078125 0.078125-0.078125 0.15625 0.15625 0.15625 0.23438 0.078125c0 0 0.078125-0.078125 0.15625-0.23438zm-1.25 0.54688c0.078125 0 0.15625 0 0.078125-0.078125l-0.078125 0.078125v0zm18.887-0.625s-0.078125 0 0 0c-0.078125 0.078125 0 0.15625 0 0.15625h0.15625v-0.078125c0-0.078125-0.078125-0.078125-0.15625-0.078125zm-0.3125 0.46875c-0.078125 0-0.078125 0 0 0-0.078125 0-0.078125 0.078125 0 0v0z" fill="#f4f4f4" fill-rule="evenodd"/>
 </g>
</svg>
