<?xml version="1.0" encoding="UTF-8"?>
<svg width="100pt" height="100pt" version="1.1" viewBox="0 0 100 100" xmlns="http://www.w3.org/2000/svg">
 <defs>
  <clipPath id="a">
   <path d="m18.512 35h62.977v30h-62.977z"/>
  </clipPath>
 </defs>
 <rect width="100" height="100"/>
 <g clip-path="url(#a)">
  <path d="m50.828 45.152c0 0.074218 0.074219 0.074218 0.074219 0.074218 0.074218 0.074219 0.14844 0.074219 0.22656 0.074219 1.0508 0.14844 2.1055 0.375 3.1562 0.375h0.14844c0.60156 0.14844 1.2031 0.22656 1.7266 0.375 0.375 0.14844 0.75 0.14844 1.1289 0.22656 0.22656 0 0.52734 0.074218 0.75-0.074219 0.30078-0.14844 0.67578 0 0.97656-0.22656 0.074219-0.074218 0.22656 0 0.375 0 0.52734 0.074219 0.97656 0.14844 1.5039 0.22656 0.22656 0 0.44922 0.074219 0.67578 0.074219 0.375 0 0.82813 0 1.2031 0.074218 0.375 0.074219 0.82812 0.074219 1.2031 0.074219h2.1797c0.074219 0 0.074219-0.074219 0.074219-0.14844 0 0 0-0.074219-0.074219-0.074219s-0.074219-0.074219-0.14844-0.074219c-0.14844 0-0.30078-0.074218-0.44922-0.074218-0.52734 0-1.0508 0.074218-1.5781 0-0.375 0-0.75-0.074219-1.1289-0.074219-0.75-0.074219-1.5039-0.14844-2.2539-0.30078-0.375-0.074219-0.75-0.14844-1.2031-0.074219-0.22656 0.074219-0.60156 0.074219-0.82812-0.14844-0.22656-0.14844-0.52734-0.14844-0.82812-0.22656-0.375-0.074219-0.67578-0.074219-1.0508-0.14844-0.30078-0.074219-0.30078-0.14844-0.30078-0.44922 0-0.14844 0-0.30078-0.14844-0.375-0.074219-0.074218-0.14844-0.074218-0.14844-0.22656 0-0.074219 0.14844-0.074219 0.22656-0.074219 0.52734 0 1.0508-0.074219 1.5781 0.074219 0.75 0.074219 1.5039 0.14844 2.2539 0.14844 0.90234-0.074219 1.7266 0 2.6289 0 0.14844 0 0.30078 0 0.44922-0.074219 0.074219 0 0.14844-0.074219 0.14844-0.14844-0.14844-0.22656-0.14844-0.52734-0.375-0.75-0.22656-0.22656-0.44922-0.375-0.67578-0.60156-0.074219-0.074219-0.14844-0.14844-0.30078-0.22656-0.60156-0.30078-0.97656-0.82812-1.1289-1.5039 0-0.074219 0-0.14844-0.074219-0.14844-0.44922-0.75-0.60156-1.6523-0.75-2.4805-0.074218-0.375 0-0.82812 0-1.2031 0-0.30078 0.074219-0.52734 0.074219-0.82812 0-0.52734 0.30078-0.90234 0.82812-1.1289 0.22656-0.074219 0.375 0 0.52734 0.074218 0.074219 0.074219 0.14844 0.14844 0.22656 0.22656 0.22656 0.30078 0.44922 0.52734 0.60156 0.82812 0.22656 0.22656 0.375 0.44922 0.67578 0.67578 0.14844 0.14844 0.30078 0.30078 0.44922 0.44922 0.67578 0.60156 1.2773 1.2031 2.0273 1.7266 0.14844 0.074219 0.22656 0.22656 0.375 0.30078 0.22656 0.44922 0.37891 0.67578 0.60156 0.82422 0.52734 0.44922 1.2031 0.75 1.8789 0.97656 0.82812 0.30078 1.5781 0.75 2.3281 1.2031 0.30469 0.22656 0.67969 0.45312 1.0547 0.60156 0.375 0.22656 0.75 0.375 0.97656 0.67578 0.30078 0.22656 0.60156 0.44922 0.97656 0.52734 0.14844 0 0.30078 0.074219 0.44922 0.14844 0.14844-0.074219 0.22656-0.14844 0.375-0.30078 0.22656 0.22656 0.44922 0.52734 0.67578 0.75 0.22656 0.22656 0.52734 0.375 0.75 0.52734 0.074219 0.074219 0.22656 0.14844 0.30078 0.14844 0.14844 0 0.30078 0.074219 0.375 0.22656 0.074219 0.074219 0.14844 0.22656 0.22656 0.30078 0.75 0.52734 0.67578 0.67578 1.6523 0.30078 0.375-0.14844 0.82813-0.30078 1.2031-0.52734 0.30078-0.14844 0.52734-0.074219 0.82812 0 0.14844 0.074219 0.22656 0.074219 0.30078 0.14844l0.22656 0.22656c0.074219 0.14844 0.14844 0.30078 0.22656 0.44922 0.22656 0.44922 0.22656 0.97656 0.074219 1.4297-0.14844 0.375-0.30078 0.82812-0.60156 1.2031-0.074219 0.074219-0.14844 0.22656-0.22656 0.30078-0.30078 0.14844-0.52734 0.44922-0.75 0.67578-0.22656 0.22656-0.44922 0.375-0.60156 0.67578 0 0 0 0.074219-0.074219 0.074219-0.14844 0.22656-0.44922 0.30078-0.44922 0.60156 0 0.22656 0.14844 0.44922 0.14844 0.75 0 0.074219 0.074219 0.14844 0.074219 0.30078-0.074219 0.14844-0.14844 0.22656-0.22656 0.375-0.074218 0.14844-0.074218 0.30078-0.074218 0.44922-0.30078 0.074219-0.60156 0-0.90234 0-0.074219 0-0.14844-0.074218-0.22656-0.14844-0.14844-0.14844-0.22656-0.30078-0.375-0.375-0.074219-0.074219-0.22656-0.14844-0.375-0.074219-0.52734 0.14844-1.0508 0.44922-1.5039 0.75-0.14844 0.074219-0.30078 0.14844-0.375 0.22656-0.60156 0.44922-1.2773 0.75-1.9531 0.97656-0.14844 0.074219-0.30078 0.14844-0.52734 0.22656-0.30078 0.14844-0.60156 0.44922-0.90234 0.60156-0.375 0.14844-0.67578 0.30078-0.97656 0.52734-0.22656 0.14844-0.44922 0.22656-0.60156 0.44922-0.52734 0.52734-1.1289 0.90234-1.6523 1.3516-0.44922 0.44922-0.97656 0.82812-1.5039 1.2773-0.52734 0.52734-1.1289 0.97656-1.8047 1.3516-0.14844 0.14844-0.375 0.30078-0.52734 0.44922-0.22656 0.14844-0.44922 0.375-0.67578 0.52734-0.60156 0.30078-1.1289 0.82812-1.5781 1.3516-0.074219 0.14844-0.22656 0.22656-0.375 0.30078-0.52734 0.30078-0.90234 0.75-1.4297 0.97656-0.14844 0.074219-0.22656 0.14844-0.375 0.30078-0.30078 0.22656-0.67578 0.375-1.0508 0.375-0.52734 0.074219-1.1289-0.30078-1.2031-0.75-0.14844-0.52734-0.375-0.97656-0.52734-1.5039-0.074218-0.14844-0.074218-0.30078-0.074218-0.44922 0-0.375-0.074219-0.82812-0.14844-1.2031-0.074218-0.44922-0.14844-0.90234-0.22656-1.3516v-0.14844c0.14844-0.375 0.30078-0.82812 0.67578-1.1289s0.75-0.60156 1.1289-0.82812c0.44922-0.22656 0.82812-0.52734 1.2773-0.75 0.074219-0.074219 0.14844-0.074219 0.22656-0.14844 0.375-0.375 0.82812-0.67578 1.2031-0.97656 0.44922-0.30078 0.82813-0.60156 1.2773-0.90234 0.60156-0.44922 1.1289-0.82812 1.7266-1.2773 0.22656-0.22656 0.60156-0.22656 0.75-0.52734 0-0.074219 0.074219-0.14844 0-0.14844s-0.14844-0.074219-0.14844-0.074219c-0.52734-0.074218-1.1289-0.14844-1.6523-0.14844-0.44922 0-0.90234 0-1.2773-0.074219-0.22656 0-0.44922-0.074218-0.75 0h-0.375c-0.52734-0.074218-1.1289-0.14844-1.6523-0.14844-0.375-0.074219-0.82812-0.074219-1.2031-0.074219s-0.82812-0.074219-1.2031-0.14844c-0.44922-0.074218-0.90234-0.14844-1.3516-0.14844-0.75 0-1.5039-0.074219-2.2539-0.14844-0.22656 0-0.44922-0.074219-0.67578-0.074219-0.14844 0-0.30078-0.074219-0.44922-0.074219-0.67578 0-1.2773 0-1.9531 0.074219-0.97656 0.074219-1.9531 0-2.8555 0.074219-0.375 0-0.67578 0-1.0508-0.074219-0.97656-0.074219-1.9531-0.074219-3.0078 0h-0.44922c-1.2031-0.074219-2.3281 0-3.5312-0.14844-0.22656 0-0.44922-0.074219-0.67578 0-0.375 0.074219-0.82812 0.074219-1.2031 0.074219-0.30078-0.074219-0.52734-0.074219-0.82812 0-0.82812 0-1.6523 0-2.4062-0.14844-0.22656-0.074218-0.52734-0.074218-0.75 0-0.375 0.074219-0.75 0.14844-1.1289 0.074219-0.22656-0.074219-0.44922 0-0.67578 0-0.67578 0.074219-1.3516 0.22656-2.0273 0.22656h-1.9531-0.52734c-0.67578 0.074218-1.3516 0.074218-2.0273 0-0.44922-0.074219-0.90234-0.074219-1.4297-0.074219-0.67578-0.074219-1.2773-0.074219-1.9531-0.22656h-0.074219c-0.375 0.074219-0.75-0.074218-1.0508-0.30078-0.14844-0.14844-0.375-0.14844-0.60156-0.22656-0.30078-0.074219-0.44922-0.30078-0.60156-0.52734-0.074218-0.14844-0.14844-0.375-0.22656-0.52734-0.22656-0.30078-0.30078-0.67578-0.14844-1.0508 0.074219-0.22656 0.074219-0.52734-0.074218-0.82812-0.074219-0.375-0.14844-0.75-0.14844-1.2031 0-0.14844 0-0.30078-0.074218-0.375-0.22656-0.30078-0.14844-0.60156-0.074219-0.90234 0-0.14844 0.074219-0.22656 0.14844-0.375 0.074219-0.14844 0.074219-0.22656 0.074219-0.375 0-0.22656 0-0.52734 0.074219-0.75 0.074218-0.22656 0.30078-0.375 0.375-0.60156 0.074218-0.14844 0.14844-0.375 0.14844-0.52734 0-0.375 0.074219-0.75 0.074219-1.1289 0-0.22656 0.22656-0.375 0.44922-0.375 0.22656 0 0.44922 0 0.67578 0.074218 0.14844 0 0.375 0.14844 0.44922 0.30078 0 0.074218 0.074219 0.14844 0.14844 0.22656 0.30078 0.52734 0.75 0.82812 1.3516 0.90234 0.14844 0 0.375 0 0.52734 0.074219 0.30078 0.074219 0.67578 0.22656 0.97656 0.22656h0.90234c0.60156 0 1.2031 0.074219 1.8047 0.14844h0.44922 1.1289c0.75 0.074219 1.5039 0.074219 2.2539 0.14844 0.97656 0 1.9531 0.14844 3.0078 0.14844 0.67578 0 1.3516 0.074218 2.0273 0.074218 0.82812 0 1.5781 0.074219 2.4062 0.14844 0.375 0 0.75 0 1.1289 0.074219 0.30078 0 0.60156 0.22656 0.75 0.44922 0 0.074218 0 0.14844 0.074219 0.14844 0 0.14844 0.14844 0.22656 0.22656 0.22656 0.52734 0 1.0508 0.074218 1.5781 0 0.22656-0.074219 0.52734 0 0.75 0 0.67578 0 1.4297 0.074218 2.1055 0.074218h0.67578c0.60156-0.074218 1.2773-0.074218 1.8789-0.14844 0.375 0 0.82813-0.074219 1.1289-0.375 0.30078-0.22656 0.75-0.375 1.1289-0.30078 0.14844 0 0.30078 0.074218 0.44922 0 0.375-0.074219 0.67578 0.074218 0.97656 0.30078 0.074219 0.074219 0.14844 0.074219 0.22656 0.14844 0.14844 0.074219 0.375 0.14844 0.52734 0.074219 0.22656-0.074219 0.375-0.074219 0.52734 0.074219 0.22656 0.14844 0.52734 0.22656 0.75 0.22656h0.074219c0.67578 0.14844 1.4297 0.14844 2.1055 0.22656 0.14844 0 0.375 0 0.52734 0.14844 0.074218 0 0.074218 0.074219 0.074218 0.14844 0 0.074218-0.074218 0.14844-0.074218 0.14844-0.14844 0-0.22656 0.074219-0.375 0.074219-0.30078 0-0.60156-0.074219-0.90234-0.074219-0.90234-0.14844-1.7266-0.074219-2.6289-0.14844-0.22656 0-0.52734 0-0.75 0.074218 0.14062-0.36719 0.066406-0.36719-0.007813-0.29297zm17.734 2.8555s-0.074219 0 0 0c-0.074219-0.074218-0.074219-0.074218-0.14844-0.074218 0.074219 0.074218 0.074219 0.074218 0.14844 0.074218zm-19.012-2.7031h0.52734c0.074219 0 0.14844-0.074219 0.074219-0.14844 0 0 0-0.074219-0.074219-0.074219-0.44922-0.14844-0.82812-0.14844-1.2773 0l-0.074219 0.074219c0 0.074219 0.074219 0.14844 0.074219 0.14844h0.75zm-2.0312-0.078126h0.22656c0.074218 0 0.14844 0 0.074218-0.074218 0 0-0.074218-0.074219-0.074218-0.074219-0.14844-0.074219-0.30078 0-0.44922 0 0 0 0 0.074219-0.074219 0.074219l0.074219 0.074218h0.22266zm-0.97656-0.074218s0.074219 0 0 0c0.074219-0.074219 0-0.14844 0-0.14844-0.074219 0-0.14844 0-0.074219 0.074219-0.074219 0.074219 0 0.074219 0.074219 0.074219z" fill="#f4f4f4" fill-rule="evenodd"/>
 </g>
 <path d="m57.363 43.875s0.078125-0.074219 0 0c0.074219-0.074219 0.074219 0 0.074219 0h-0.074219c0.078125 0 0.078125 0 0 0z" fill="#f4f4f4" fill-rule="evenodd"/>
</svg>
